<svg xmlns="http://www.w3.org/2000/svg" xmlns:xlink="http://www.w3.org/1999/xlink" viewBox="0 0 232.66 232.66"><defs><linearGradient id="Gradient_Purple_2" x2="232.66" y1="116.33" y2="116.33" gradientUnits="userSpaceOnUse"><stop offset="0" stop-color="#a92ffb"/><stop offset="1" stop-color="#3919bb"/></linearGradient></defs><title>times</title><g id="Layer_2" data-name="Layer 2"><g id="Layer_1-2" data-name="Layer 1"><path fill="url(#Gradient_Purple_2)" fill-rule="evenodd" d="M225,161.33a26.44,26.44,0,0,1,0,37.28L198.61,225a26.44,26.44,0,0,1-37.28,0l-45-45-45,45a26.44,26.44,0,0,1-37.28,0L7.69,198.61a26.44,26.44,0,0,1,0-37.28l45-45-45-45a26.44,26.44,0,0,1,0-37.28L34.05,7.69a26.44,26.44,0,0,1,37.28,0l45,45,45-45a26.44,26.44,0,0,1,37.28,0L225,34.05a26.44,26.44,0,0,1,0,37.28l-45,45Z"/></g></g></svg>