<svg xmlns="http://www.w3.org/2000/svg" xmlns:xlink="http://www.w3.org/1999/xlink" viewBox="0 0 207.54 203.76"><defs><pattern id="New_Pattern_4" data-name="New Pattern 4" width="161" height="30" patternUnits="userSpaceOnUse" viewBox="0 0 161 30"><rect width="161" height="30" style="fill:none"/><rect y="24" width="161" height="3" style="fill:#6507fa"/><rect y="27" width="161" height="3" style="fill:#fff"/><rect y="18" width="161" height="3" style="fill:#6507fa"/><rect y="21" width="161" height="3" style="fill:#fff"/><rect y="12" width="161" height="3" style="fill:#6507fa"/><rect y="15" width="161" height="3" style="fill:#fff"/><rect y="6" width="161" height="3" style="fill:#6507fa"/><rect y="9" width="161" height="3" style="fill:#fff"/><rect width="161" height="3" style="fill:#6507fa"/><rect y="3" width="161" height="3" style="fill:#fff"/></pattern></defs><title>combined</title><g id="Layer_2" data-name="Layer 2"><g id="Layer_1-2" data-name="Layer 1"><path d="M132.36,0H103.57V53.26l.05-.15,25.55,75.48h-25.6v37.73h38.37l12.77,37.44h52.83ZM0,203.76H52.25l0-.09H0Z" style="fill:#6507fa"/><polygon points="103.57 53.26 77.79 128.59 103.57 128.59 103.57 166.32 65.02 166.32 52.28 203.67 0.03 203.67 75.18 0 103.57 0 103.57 53.26" style="fill:url(#New_Pattern_4)"/></g></g></svg>