<svg xmlns="http://www.w3.org/2000/svg" xmlns:xlink="http://www.w3.org/1999/xlink" viewBox="0 0 207.51 203.76"><defs><pattern id="New_Pattern_4" width="161" height="30" data-name="New Pattern 4" patternUnits="userSpaceOnUse" viewBox="0 0 161 30"><rect width="161" height="30" fill="none"/><rect width="161" height="3" y="24" fill="#6507fa"/><rect width="161" height="3" y="27" fill="#fff"/><rect width="161" height="3" y="18" fill="#6507fa"/><rect width="161" height="3" y="21" fill="#fff"/><rect width="161" height="3" y="12" fill="#6507fa"/><rect width="161" height="3" y="15" fill="#fff"/><rect width="161" height="3" y="6" fill="#6507fa"/><rect width="161" height="3" y="9" fill="#fff"/><rect width="161" height="3" fill="#6507fa"/><rect width="161" height="3" y="3" fill="#fff"/></pattern></defs><title>combined</title><g id="Layer_2" data-name="Layer 2"><g id="Layer_1-2" data-name="Layer 1"><path fill="#6507fa" d="M132.33,0H103.54V53.26l0-.15,25.55,75.48h-25.6v37.73h38.37l12.77,37.44h52.83Z"/><polygon fill="url(#New_Pattern_4)" points="103.54 53.26 77.76 128.59 103.54 128.59 103.54 166.32 64.99 166.32 52.25 203.67 0 203.67 75.15 0 103.54 0 103.54 53.26"/></g></g></svg>