<svg xmlns="http://www.w3.org/2000/svg" xmlns:xlink="http://www.w3.org/1999/xlink" viewBox="0 0 964.79 290"><defs><clipPath id="clip-path" transform="translate(-17.61 -335.76)"><rect id="_Rectangle_" data-name="&lt;Rectangle&gt;" width="1000" height="625" style="fill:none"/></clipPath><linearGradient id="linear-gradient" x1="174.12" y1="250.89" x2="174.12" y2="78.39" gradientUnits="userSpaceOnUse"><stop offset="0" stop-color="#696969"/><stop offset="1" stop-color="#c5c3c3"/></linearGradient><linearGradient id="linear-gradient-2" x1="171.3" y1="414.15" x2="171.3" y2="411.6" xlink:href="#linear-gradient"/><linearGradient id="linear-gradient-3" x1="491.8" y1="280.45" x2="491.8" y2="0" xlink:href="#linear-gradient"/><linearGradient id="linear-gradient-4" x1="499.64" y1="385.03" x2="499.64" y2="647.64" gradientUnits="userSpaceOnUse"><stop offset="0" stop-color="#e3e2e2"/><stop offset="1" stop-color="#969696"/></linearGradient></defs><title>metropolis_</title><g id="Layer_2" data-name="Layer 2"><g id="Layer_1-2" data-name="Layer 1"><g style="clip-path:url(#clip-path)"><polygon points="139.9 250.89 208.34 250.89 208.34 109.72 210.28 109.72 210.28 105.68 206.04 105.68 206.04 100.52 172.37 100.52 172.37 92.67 159.5 92.67 157.58 87.55 154.4 87.55 154.4 78.39 153.69 78.39 152.98 78.39 152.98 87.55 147.09 87.55 147.09 92.67 147.09 98.58 147.09 100.52 142.2 100.52 142.2 105.68 137.96 105.68 137.96 109.72 139.9 109.72 139.9 250.89" style="fill:url(#linear-gradient)"/><path d="M172.57,412.87a1.28,1.28,0,1,0-1.27,1.28A1.27,1.27,0,0,0,172.57,412.87Z" transform="translate(-17.61 -335.76)" style="fill:url(#linear-gradient-2)"/><polygon points="775.07 259.16 775.07 69.36 690.81 51.87 700.04 259.16 452.78 259.16 452.78 141.9 448.23 141.9 448.23 71.72 436.48 71.72 436.48 52.93 432.29 52.93 432.29 25.36 409.16 25.36 409.16 5.1 407.1 5.1 407.1 25.36 402.57 25.36 402.57 0 400.51 0 400.51 25.36 385.89 25.36 385.89 71.72 378.34 71.72 378.34 141.9 371.87 141.9 371.87 259.16 306.12 259.16 306.12 103.06 307.25 103.06 307.25 101.26 299.16 101.26 299.16 90.41 300.21 90.41 300.21 88.67 292.78 88.67 292.78 82.44 293.45 82.44 293.45 81.11 290.25 81.11 290.25 75.22 287.19 75.22 286.72 75.22 286.72 54.19 286.39 54.19 285.97 54.19 285.55 54.19 285.55 75.22 284.12 75.22 284.12 63.49 283.79 63.49 283.37 63.49 282.94 63.49 282.94 75.22 279.41 75.22 279.41 81.11 275.72 81.11 275.72 82.44 276.88 82.44 276.88 88.67 269.45 88.67 269.45 90.41 270.5 90.41 270.5 101.26 262.41 101.26 262.41 103.06 263.55 103.06 263.55 259.16 44.26 259.16 44.26 280.45 939.34 280.45 939.34 259.16 775.07 259.16" style="fill:url(#linear-gradient-3)"/><path d="M940.85,614.08V594.91H913.91l-10.2-75.43h-1.53v-9.06h-5.35v9.06H895.5v-3.39h-3.75v3.39H884v-7.9h-2.15v-5.49H866.58v5.49h-2.14v7.9h-2.15v45.31H848.72v-115h-4.46V424.62h-1.43v25.21h-3.39v-35H838v35h-2.94V430.9h-1.43v18.93H807.31v81.6H778v52.86H750.68l-21.71-40a56.46,56.46,0,0,0,10.26-7.59l4.45,4.76a4.4,4.4,0,1,0,.4-.32l-4.48-4.78,1.13-1.1a56.2,56.2,0,0,0,11.19-15.93l5,2.29a4.56,4.56,0,1,0,.15-.48l-4.9-2.27a55.66,55.66,0,0,0,5-21.24l5.34.18a4.61,4.61,0,1,0,0-.51l-5.34-.17c0-.52,0-1.05,0-1.57a56.16,56.16,0,0,0-3.34-19.18l4.46-1.64a4.28,4.28,0,1,0-.18-.47l-4.46,1.64a55.81,55.81,0,0,0-11.48-18.56l3.49-3.27a4.56,4.56,0,0,0,7.7-3.3,4.56,4.56,0,1,0-8.05,2.93L741.82,457c-.36-.38-.72-.76-1.09-1.13a56.34,56.34,0,0,0-18.13-12.17l1.92-4.67a4.43,4.43,0,0,0,1.38.21,4.54,4.54,0,1,0-1.86-.39l-1.91,4.66a55.93,55.93,0,0,0-19-4.05l.2-6.39h.15a4.59,4.59,0,1,0-.65-.05l-.21,6.42c-.52,0-1.05,0-1.57,0a56.2,56.2,0,0,0-18.44,3.09l-1.83-5.22a4.54,4.54,0,1,0-1.74.35,4.73,4.73,0,0,0,1.26-.18l1.83,5.21a56,56,0,0,0-19.29,11.76l-3.33-3.56a4.42,4.42,0,1,0-.36.36l3.32,3.55c-.38.35-.76.72-1.13,1.09a56,56,0,0,0-11.19,15.93l-4.24-1.95a4.43,4.43,0,0,0,.24-1.46,4.54,4.54,0,1,0-.42,1.93l4.2,1.94a55.89,55.89,0,0,0-5,21.24l-5.43-.18a4.52,4.52,0,1,0,0,.51l5.43.18c0,.52,0,1,0,1.57a56.1,56.1,0,0,0,3.34,19.17l-4.46,1.64a4.55,4.55,0,1,0,.38,1.81,4.51,4.51,0,0,0-.2-1.33l4.45-1.64a56,56,0,0,0,11.49,18.56L656.38,537a4.5,4.5,0,1,0,.35.37l3.49-3.27c.36.38.72.75,1.09,1.12a56.58,56.58,0,0,0,11.76,9l-21.71,40H633.77V557.16H626.6V505.64h2.79v-1.12h-61.6v1.12h2.79v26h-6l-5.76,29.61V464.12h-2.53V429H543.52v-13.4h-6.8V404.31h-2.39V385h-.62v19.28h-2.39v11.24h-6.81V429H511.88v35.17h-2.62V528H489.67v56.32h-65V475.39h5.22v-1.71h-5.22v-3.07h-6.62v-5H364v5h-6.62v3.07h-5.22v1.71h5.22v67.79H348.5V530.46H293.88V546H282v28.93H262.69V480.38h-6.43V474h-5.08V457H250.1v17h-2.41V452.66h-1.07V474h-3v6.43h-1.59v94.54h-39.9V519.48H204v-3.75H191.73V505.56h-5.9v10.17h-5.35V505.56h-5.36v10.17H164.7V505.56H132.81v10.17h-7.45v3.75h4.24v20.89H117.81V587.5H101.64V574.92h-18v27.44H61.86v11.72H29.75v33.56H969.54V614.08ZM728.24,542.93l-7.52-13.86a39,39,0,0,0,6.7-5l10.77,11.5A54.75,54.75,0,0,1,728.24,542.93Zm-28.15-44.47a2.85,2.85,0,0,0,.58.12l-1.14,35.07a37.94,37.94,0,0,1-12.77-2.73ZM686.3,530.72a34.92,34.92,0,0,1-3.74-1.82l16.73-30.84a2.33,2.33,0,0,0,.34.2Zm14.87-32.12a3.19,3.19,0,0,0,.63-.1l11.66,33.1A38,38,0,0,1,701,533.68h-1Zm1.1-.27a2.27,2.27,0,0,0,.48-.27l16.73,30.84a37.5,37.5,0,0,1-5.54,2.53Zm2.82,1.92,21.81,23.28a38.2,38.2,0,0,1-6.54,4.87Zm-1-1.76-.63-1.16c.07-.09.13-.19.19-.28l31.85,14.7a38.17,38.17,0,0,1-8.27,11.43Zm-.23-1.9a3.24,3.24,0,0,0,.16-.7L739.13,497a37.59,37.59,0,0,1-3.38,14.26Zm.18-1.21a2.85,2.85,0,0,0-.11-.66L736.9,482.6a38,38,0,0,1,2.26,12.94c0,.33,0,.66,0,1Zm-.28-1.14a3.26,3.26,0,0,0-.38-.61l25.59-24a38.4,38.4,0,0,1,7.72,12.47Zm-.73-1a2.75,2.75,0,0,0-.66-.45l13.33-32.46a38.33,38.33,0,0,1,12.93,8.93Zm-1.12-.64a3.75,3.75,0,0,0-.58-.13l1.14-35.07a37.84,37.84,0,0,1,12.76,2.74Zm-1.08-.14a3.19,3.19,0,0,0-.63.09l-11.66-33.09A38,38,0,0,1,701,457.39l1,0Zm-1.1.26a2.83,2.83,0,0,0-.65.4l-24-25.6a38.22,38.22,0,0,1,13-7.89Zm-1,.74a3.09,3.09,0,0,0-.4.55L666.5,479.32a38.29,38.29,0,0,1,8.27-11.43Zm-.61,1a2.67,2.67,0,0,0-.16.69L662.91,494a37.86,37.86,0,0,1,3.37-14.26Zm-.18,1.2a2.85,2.85,0,0,0,.11.66l-32.93,12.13a37.77,37.77,0,0,1-2.26-12.94c0-.33,0-.66,0-1Zm.28,1.14a3.1,3.1,0,0,0,.29.5l-.2.38L673,521.42A38.3,38.3,0,0,1,665.31,509Zm-.68,2.29L681.68,528.4a38.26,38.26,0,0,1-8.31-6.61Zm-15.37,30.45a38.47,38.47,0,0,0,3.82,1.86L680,546a52.48,52.48,0,0,1-5.34-2.58Zm4.29,2a38.64,38.64,0,0,0,13,2.79L699,550.13a54.36,54.36,0,0,1-18.5-3.93ZM700,534.43h1a38.67,38.67,0,0,0,12.69-2.13L719,547.17a54.72,54.72,0,0,1-17.93,3l-1.52,0Zm14.18-2.29a37.91,37.91,0,0,0,5.65-2.57l7.52,13.86a54.83,54.83,0,0,1-7.93,3.58Zm25.46,2-1.09,1.06-10.77-11.49a39.28,39.28,0,0,0,8.44-11.67l14.31,6.61A54.71,54.71,0,0,1,739.65,534.17Zm11.1-15.95-14.31-6.61a38.55,38.55,0,0,0,3.45-14.56l15.73.51A54.45,54.45,0,0,1,750.75,518.22Zm4.9-22.68c0,.51,0,1,0,1.52l-15.72-.51c0-.34,0-.68,0-1a38.58,38.58,0,0,0-2.31-13.21l14.79-5.44A54.6,54.6,0,0,1,755.65,495.54Zm-14.59-37.18a54.52,54.52,0,0,1,11.17,18.05l-14.79,5.45a39.24,39.24,0,0,0-7.87-12.73Zm-1.41-1.46c.36.36.71.73,1.06,1.1l-11.49,10.76A39,39,0,0,0,716,459.65l6-14.58A54.7,54.7,0,0,1,739.65,456.9Zm-36.6-16a54.42,54.42,0,0,1,18.5,3.94l-6,14.58a38.7,38.7,0,0,0-13-2.8Zm-2,0,1.52,0L702,456.65l-1,0a38.67,38.67,0,0,0-12.69,2.13l-5.24-14.86A54.72,54.72,0,0,1,701,440.9Zm-18.41,3.17,5.24,14.86A39,39,0,0,0,674.62,467L663.85,455.5A54.24,54.24,0,0,1,682.61,444.07ZM662.39,456.9l1.09-1.06,10.77,11.5A38.93,38.93,0,0,0,665.81,479l-14.31-6.6A54.62,54.62,0,0,1,662.39,456.9Zm-11.11,16,14.31,6.6A38.78,38.78,0,0,0,662.15,494l-15.73-.51A54.35,54.35,0,0,1,651.28,472.86Zm-4.89,22.68c0-.51,0-1,0-1.53l15.72.52c0,.33,0,.67,0,1a38.76,38.76,0,0,0,2.3,13.2l-14.78,5.44A54.5,54.5,0,0,1,646.39,495.54ZM661,532.71a54.42,54.42,0,0,1-11.17-18.05l14.79-5.44a39.09,39.09,0,0,0,7.87,12.72Zm1.41,1.46c-.36-.36-.72-.73-1.06-1.09l11.49-10.77a38.87,38.87,0,0,0,8.49,6.76l-7.52,13.86A55.06,55.06,0,0,1,662.39,534.17ZM674,544.76a54.32,54.32,0,0,0,5.49,2.65l-1.92,4.67a4.8,4.8,0,0,0-1.38-.21,4.54,4.54,0,1,0,1.86.39l1.91-4.66a55.93,55.93,0,0,0,19,4l-.15,4.78a4.59,4.59,0,1,0,.5,0l.16-4.78,1.57,0a56.45,56.45,0,0,0,18.44-3.08l1.63,4.64a4.56,4.56,0,1,0,1.94-.43,4.72,4.72,0,0,0-1.47.24l-1.63-4.62a54.79,54.79,0,0,0,8.16-3.68l21.44,39.53h-97Z" transform="translate(-17.61 -335.76)" style="fill:url(#linear-gradient-4)"/><path d="M833.94,473.87a1.09,1.09,0,1,0-1.07,1.27A1.18,1.18,0,0,0,833.94,473.87Z" transform="translate(-17.61 -335.76)" style="fill:#e0e2e3"/><polygon points="932.86 292.91 926.23 248.53 912.66 248.53 912.66 211.71 914.34 211.71 914.34 208.38 907.75 208.38 907.75 194.03 906.95 194.03 906.95 208.38 902.39 208.38 902.39 196.63 901.59 196.63 901.59 208.38 874.15 208.38 874.15 211.71 876.02 211.71 876.02 286.42 844.69 286.42 844.69 252.96 826.84 252.96 826.84 170.72 828.48 170.72 828.48 166.68 824.91 166.68 824.91 161.51 820.81 161.51 820.81 159.57 820.81 153.67 820.81 148.54 815.86 148.54 815.86 139.39 815.27 139.39 814.67 139.39 814.67 148.54 812 148.54 810.39 153.67 799.59 153.67 799.59 161.51 771.33 161.51 771.33 166.68 767.76 166.68 767.76 170.72 769.4 170.72 769.4 224.22 745.75 224.22 745.75 276.8 719.51 265.17 719.51 214.14 723.74 214.14 723.74 210.39 716.29 210.39 716.29 200.22 684.4 200.22 684.4 210.39 673.98 210.39 673.98 200.22 668.63 200.22 668.63 210.39 663.27 210.39 663.27 200.22 657.38 200.22 657.38 210.39 645.06 210.39 645.06 214.14 646.93 214.14 646.93 284.87 634.97 284.87 634.97 284.13 632.81 284.13 632.81 263.98 634.97 263.98 634.97 262.36 632.81 262.36 632.81 242.2 634.97 242.2 634.97 240.59 632.81 240.59 632.81 220.43 634.97 220.43 634.97 218.81 632.81 218.81 632.81 198.66 634.97 198.66 634.97 197.04 632.81 197.04 632.81 176.88 634.97 176.88 634.97 175.27 632.81 175.27 632.81 154.41 636.52 154.41 636.52 152.78 638.4 152.78 638.4 148.36 603.17 148.36 603.17 143.44 604.32 143.44 604.32 142.02 585.14 142.02 585.14 143.44 586.28 143.44 586.28 148.36 577.55 148.36 577.55 152.78 579.44 152.78 579.44 154.41 583.15 154.41 583.15 175.27 580.99 175.27 580.99 176.88 583.15 176.88 583.15 197.04 580.99 197.04 580.99 198.66 583.15 198.66 583.15 218.81 580.99 218.81 580.99 220.43 583.15 220.43 583.15 240.59 580.99 240.59 580.99 242.2 583.15 242.2 583.15 262.36 580.99 262.36 580.99 263.98 583.15 263.98 583.15 284.13 580.99 284.13 580.99 285.75 583.15 285.75 583.15 302.22 571.13 302.22 571.13 238.57 522.74 238.57 522.74 284.87 514.89 284.87 514.89 140.63 509.08 140.63 509.08 144.35 498.35 146.97 498.35 144.56 492.54 144.56 492.54 148.39 481.81 151.02 481.81 148.25 476 148.25 476 152.44 465.28 155.06 465.28 152.78 459.47 152.78 459.47 156.48 448.74 159.11 448.74 157.14 442.93 157.14 442.93 298.79 434.75 298.79 434.75 223.27 404.47 223.27 404.47 269.71 373.42 269.71 373.42 230.11 369.6 230.11 369.6 217.1 371.87 217.1 371.87 215.8 361.82 215.8 361.82 211.71 360.75 211.71 360.75 215.8 357.54 215.8 357.54 194.81 356.74 194.81 356.74 215.8 352.55 215.8 352.55 217.1 355.01 217.1 355.01 230.11 334.52 230.11 334.52 260.31 314.57 260.31 304.16 298.79 283.25 298.79 283.25 173.18 255.58 173.18 255.58 168.68 257.15 168.68 257.15 167.1 236.19 167.1 236.19 168.68 237.84 168.68 237.84 173.18 237.84 180.42 237.84 266.44 224.78 266.44 224.78 233.94 229.42 233.94 229.42 231 196.59 231 196.59 211.36 190.32 211.36 190.32 207.32 176.34 207.32 176.34 211.36 164.97 211.36 164.97 281.47 127.64 281.47 127.64 229.47 96.21 229.47 96.21 270.54 68.94 270.54 68.94 296.82 49.27 296.82 49.27 263.79 23.41 263.79 23.41 291.95 0 291.95 0 311.89 23.41 311.89 31.33 311.89 44.26 311.89 49.27 311.89 68.94 311.89 96.21 311.89 105.38 311.89 110.29 311.89 127.64 311.89 164.97 311.89 176.34 311.89 190.32 311.89 196.59 311.89 221.08 311.89 224.78 311.89 237.84 311.89 259.72 311.89 270.5 311.89 283.25 311.89 334.52 311.89 346.36 311.89 366.35 311.89 373.42 311.89 405 311.89 413.49 311.89 442.93 311.89 445.84 311.89 448.74 311.89 459.47 311.89 465.28 311.89 476 311.89 480.86 311.89 481.81 311.89 492.54 311.89 498.35 311.89 507.57 311.89 509.08 311.89 511.98 311.89 514.89 311.89 522.74 311.89 562.73 311.89 568.45 311.89 571.13 311.89 583.15 311.89 604.32 311.89 623.7 311.89 632.81 311.89 646.93 311.89 682.02 311.89 719.12 311.89 719.51 311.89 745.75 311.89 760.42 311.89 769.4 311.89 775.07 311.89 818.98 311.89 826.84 311.89 836.25 311.89 844.69 311.89 876.02 311.89 899.32 311.89 904.09 311.89 912.66 311.89 964.79 311.89 964.79 292.91 932.86 292.91" style="fill:#e0e2e3"/></g></g></g></svg>