<svg xmlns="http://www.w3.org/2000/svg" xmlns:xlink="http://www.w3.org/1999/xlink" viewBox="0 0 438.49 324.79"><defs><linearGradient id="Áåçûìÿííûé_ãðàäèåíò_33" x1="405.87" x2="438.49" y1="269.37" y2="269.37" gradientUnits="userSpaceOnUse"><stop offset="0" stop-color="#e39a65"/><stop offset="1" stop-color="#e95f8d"/></linearGradient><linearGradient id="Áåçûìÿííûé_ãðàäèåíò_33-2" x1="361.22" x2="416" y1="224.68" y2="224.68" xlink:href="#Áåçûìÿííûé_ãðàäèåíò_33"/><linearGradient id="Áåçûìÿííûé_ãðàäèåíò_33-3" x1="0" x2="54.78" y1="243.03" y2="243.03" xlink:href="#Áåçûìÿííûé_ãðàäèåíò_33"/><linearGradient id="Áåçûìÿííûé_ãðàäèåíò_33-4" x1="63.77" x2="356.13" y1="239.51" y2="239.51" xlink:href="#Áåçûìÿííûé_ãðàäèåíò_33"/><radialGradient id="Áåçûìÿííûé_ãðàäèåíò_113" cx="225.26" cy="23.06" r="223.3" gradientUnits="userSpaceOnUse"><stop offset="0" stop-color="#e39a65"/><stop offset=".47" stop-color="#a92ffb"/><stop offset=".59" stop-color="#891cfb"/><stop offset=".74" stop-color="#6507fa"/><stop offset=".8" stop-color="#0d0c6f"/></radialGradient><radialGradient id="Áåçûìÿííûé_ãðàäèåíò_109" cx="88.69" cy="202.38" r="244.17" gradientUnits="userSpaceOnUse"><stop offset="0" stop-color="#e39a65"/><stop offset=".47" stop-color="#a92ffb"/><stop offset=".57" stop-color="#891cfb"/><stop offset=".68" stop-color="#6507fa"/><stop offset=".74" stop-color="#0d0c6f"/></radialGradient><radialGradient id="Áåçûìÿííûé_ãðàäèåíò_343" cx="111.15" cy="153.37" r="218.96" gradientUnits="userSpaceOnUse"><stop offset="0" stop-color="#e39a65"/><stop offset=".47" stop-color="#a92ffb"/><stop offset=".59" stop-color="#891cfb"/><stop offset=".73" stop-color="#6507fa"/><stop offset="1" stop-color="#3919bb"/></radialGradient><radialGradient id="Áåçûìÿííûé_ãðàäèåíò_343-2" cx="165.69" cy="69.64" r="223.34" xlink:href="#Áåçûìÿííûé_ãðàäèåíò_343"/><linearGradient id="Áåçûìÿííûé_ãðàäèåíò_441" x1="190.24" x2="369.21" y1="128.27" y2="128.27" gradientUnits="userSpaceOnUse"><stop offset="0" stop-color="#3919bb"/><stop offset="1" stop-color="#6507fa"/></linearGradient><radialGradient id="Áåçûìÿííûé_ãðàäèåíò_343-3" cx="84.16" cy="21.94" r="347.85" xlink:href="#Áåçûìÿííûé_ãðàäèåíò_343"/><linearGradient id="Áåçûìÿííûé_ãðàäèåíò_33-5" x1="68.22" x2="145" y1="152.75" y2="152.75" xlink:href="#Áåçûìÿííûé_ãðàäèåíò_33"/><radialGradient id="Áåçûìÿííûé_ãðàäèåíò_199" cx="75.03" cy="90.12" r="165.35" gradientUnits="userSpaceOnUse"><stop offset="0" stop-color="#e39a65"/><stop offset=".15" stop-color="#a92ffb"/><stop offset=".41" stop-color="#3919bb"/><stop offset=".93" stop-color="#3919bb"/></radialGradient><linearGradient id="Áåçûìÿííûé_ãðàäèåíò_144" x1="77.96" x2="137.27" y1="69.64" y2="69.64" gradientUnits="userSpaceOnUse"><stop offset="0" stop-color="#e39a65"/><stop offset=".25" stop-color="#a92ffb"/><stop offset=".56" stop-color="#3919bb"/></linearGradient><linearGradient id="Áåçûìÿííûé_ãðàäèåíò_483" x1="83.52" x2="131.7" y1="66.62" y2="66.62" gradientUnits="userSpaceOnUse"><stop offset="0" stop-color="#4f1fec"/><stop offset="1" stop-color="#a92ffb"/></linearGradient><linearGradient id="Áåçûìÿííûé_ãðàäèåíò_483-2" x1="82.38" x2="130.56" y1="66.62" y2="66.62" xlink:href="#Áåçûìÿííûé_ãðàäèåíò_483"/><linearGradient id="Áåçûìÿííûé_ãðàäèåíò_193" x1="83.52" x2="144.27" y1="60.27" y2="60.27" gradientUnits="userSpaceOnUse"><stop offset="0" stop-color="#131060"/><stop offset=".19" stop-color="#141062"/><stop offset=".28" stop-color="#19106a"/><stop offset=".36" stop-color="#221078"/><stop offset=".42" stop-color="#2e0f8b"/><stop offset=".48" stop-color="#3e0fa3"/><stop offset=".54" stop-color="#510ec2"/><stop offset=".58" stop-color="#680de5"/><stop offset=".61" stop-color="#740df8"/><stop offset=".62" stop-color="#7a14f0"/><stop offset=".68" stop-color="#9b3cc3"/><stop offset=".75" stop-color="#b75d9d"/><stop offset=".81" stop-color="#cc7680"/><stop offset=".88" stop-color="#dc886c"/><stop offset=".94" stop-color="#e5935f"/><stop offset="1" stop-color="#e8975b"/></linearGradient><radialGradient id="Áåçûìÿííûé_ãðàäèåíò_223" cx="70.55" cy="52.86" r="108.16" gradientUnits="userSpaceOnUse"><stop offset="0" stop-color="#e39a65"/><stop offset=".25" stop-color="#a92ffb"/><stop offset=".74" stop-color="#3919bb"/></radialGradient><linearGradient id="Áåçûìÿííûé_ãðàäèåíò_193-2" x1="103.8" x2="112.2" y1="79.88" y2="79.88" xlink:href="#Áåçûìÿííûé_ãðàäèåíò_193"/></defs><title>laptop_1</title><g id="Layer_2" data-name="Layer 2"><g id="Ñëîé_1" data-name="Ñëîé 1"><path fill="url(#Áåçûìÿííûé_ãðàäèåíò_33)" d="M422.18,279a7,7,0,0,1-3.48-.93L407,271.25a2.17,2.17,0,0,1,0-3.76l11.74-6.78a7,7,0,0,1,7,0l11.74,6.78a2.17,2.17,0,0,1,0,3.76L425.66,278A7,7,0,0,1,422.18,279Zm0-17.32a5.13,5.13,0,0,0-2.55.68l-11.74,6.78a.32.32,0,0,0,0,.54l11.74,6.78h0a5.15,5.15,0,0,0,5.1,0l11.74-6.78a.32.32,0,0,0,0-.54l-11.74-6.78A5.15,5.15,0,0,0,422.18,261.64Z"/><path fill="url(#Áåçûìÿííûé_ãðàäèåíò_33-2)" d="M388.61,240.51A11.36,11.36,0,0,1,383,239l-20.2-11.67a3.06,3.06,0,0,1,0-5.31L383,210.36a11.31,11.31,0,0,1,11.31,0L414.47,222a3.07,3.07,0,0,1,0,5.31L394.27,239A11.4,11.4,0,0,1,388.61,240.51Zm-4.72-3.13a9.44,9.44,0,0,0,9.45,0l20.2-11.66a1.18,1.18,0,0,0,.6-1,1.19,1.19,0,0,0-.6-1.05L393.34,212a9.49,9.49,0,0,0-9.45,0l-20.2,11.66a1.19,1.19,0,0,0-.61,1.05,1.17,1.17,0,0,0,.61,1Z"/><path fill="url(#Áåçûìÿííûé_ãðàäèåíò_33-3)" d="M27.39,258.86a11.3,11.3,0,0,1-5.66-1.51L1.54,245.69a3.07,3.07,0,0,1,0-5.32l20.19-11.66a11.31,11.31,0,0,1,11.31,0l20.2,11.66a3.07,3.07,0,0,1,0,5.32L33,257.35A11.26,11.26,0,0,1,27.39,258.86Zm0-29.8a9.47,9.47,0,0,0-4.73,1.26L2.46,242a1.21,1.21,0,0,0,0,2.1l20.19,11.66h0a9.51,9.51,0,0,0,9.46,0l20.19-11.66a1.21,1.21,0,0,0,0-2.1l-20.2-11.66A9.43,9.43,0,0,0,27.39,229.06Z"/><path fill="#020230" d="M231.94,309.73,87.5,226.35c-2.1-1.22-1.84-3.34.59-4.75l92.7-53.51c2.43-1.41,6.11-1.56,8.21-.34l144.43,83.38c2.11,1.22,1.85,3.34-.58,4.74l-92.7,53.52C237.72,310.8,234,311,231.94,309.73Z" opacity=".6"/><path fill="url(#Áåçûìÿííûé_ãðàäèåíò_33-4)" d="M235.24,324.79a9.18,9.18,0,0,1-4.54-1.07h0L65.86,228.55a3.68,3.68,0,0,1-2.09-3.15c0-1.45,1-2.86,2.76-3.87L178.9,155.7c3.08-1.78,7.61-1.95,10.31-.39L354,250.48a3.66,3.66,0,0,1,2.09,3.15c0,1.45-1,2.86-2.76,3.87L241,323.33A11.75,11.75,0,0,1,235.24,324.79ZM184.68,156.11a10,10,0,0,0-4.85,1.2L67.47,223.14c-1.15.66-1.83,1.51-1.83,2.26a2,2,0,0,0,1.15,1.54l164.84,95.17h0c2.11,1.22,6,1,8.44-.39l112.37-65.83c1.15-.66,1.83-1.51,1.83-2.26a2,2,0,0,0-1.15-1.54L188.28,156.92A7.4,7.4,0,0,0,184.68,156.11Z"/><path fill="url(#Áåçûìÿííûé_ãðàäèåíò_113)" d="M371.8,111.33l-143.86-83a3.71,3.71,0,0,0-2.93-.43h0l-2.66.93.94.22a4.6,4.6,0,0,0-.88,1.64L189.85,136.28a6.38,6.38,0,0,0,2.64,7.11l143.86,83.06a4.29,4.29,0,0,0,1.06.43l-.36.78,2.55-.89h0a4,4,0,0,0,2.32-2.69l32.53-105.63A6.36,6.36,0,0,0,371.8,111.33Z"/><path fill="url(#Áåçûìÿííûé_ãðàäèåíò_109)" d="M331.2,230.4l.05.06-142.09-82c-2.09-1.21-5.75-1.06-8.16.33l-91.81,53-3.06-1.17.86,4.3h0a2.59,2.59,0,0,0,1.38,1.72l143.41,82.8c2.09,1.21,5.75,1.06,8.16-.34l92-53.14a3.65,3.65,0,0,0,1.95-2.27h0l.88-4.18Z"/><path fill="url(#Áåçûìÿííûé_ãðàäèåíò_343)" d="M231.94,285.62,87.5,202.24c-2.1-1.22-1.84-3.34.59-4.75L180.79,144c2.43-1.41,6.11-1.56,8.21-.34L333.43,227c2.11,1.22,1.85,3.34-.58,4.74l-92.7,53.52C237.72,286.69,234,286.84,231.94,285.62Z"/><path fill="#fff" d="M332.84,230.64l-92.69,53.52c-2.43,1.4-6.11,1.55-8.21.34L87.5,201.11a2.73,2.73,0,0,1-1.31-1.5,2.26,2.26,0,0,0,1.31,2.63l144.44,83.38c2.1,1.22,5.78,1.07,8.21-.34l92.69-53.52c1.61-.92,2.25-2.16,1.91-3.24A3.83,3.83,0,0,1,332.84,230.64Z"/><g opacity=".4"><path fill="#06033e" d="M156.4,188.7l-4.88-2.81c-.39-.23-.34-.62.11-.88l5.76-3.33a1.67,1.67,0,0,1,1.52-.06l4.88,2.82c.39.22.34.62-.11.88l-5.76,3.32A1.67,1.67,0,0,1,156.4,188.7Z"/><path fill="#06033e" d="M163.93,193.05l-4.88-2.81c-.39-.23-.34-.62.11-.89l5.76-3.32a1.67,1.67,0,0,1,1.52-.06l4.88,2.81c.39.23.34.62-.11.89L165.45,193A1.67,1.67,0,0,1,163.93,193.05Z"/><path fill="#06033e" d="M171.46,197.4l-4.88-2.82c-.39-.22-.34-.62.11-.88l5.76-3.32a1.67,1.67,0,0,1,1.52-.06l4.88,2.81c.39.23.34.62-.11.88L173,197.34A1.67,1.67,0,0,1,171.46,197.4Z"/><path fill="#06033e" d="M181.87,193.81,177,191c-.4-.22-.35-.62.11-.88l4.83-2.79a1.67,1.67,0,0,1,1.52-.06l4.88,2.81c.39.23.34.63-.11.89l-4.83,2.79A1.72,1.72,0,0,1,181.87,193.81Z"/><path fill="#06033e" d="M189.4,198.16l-4.87-2.82c-.4-.22-.35-.62.11-.88l4.83-2.79a1.67,1.67,0,0,1,1.52-.06l4.88,2.81c.39.23.34.62-.11.88l-4.83,2.79A1.73,1.73,0,0,1,189.4,198.16Z"/><path fill="#06033e" d="M196.93,202.5l-4.87-2.81c-.4-.23-.35-.62.11-.88L197,196a1.71,1.71,0,0,1,1.52-.07l4.88,2.82c.39.23.34.62-.11.88l-4.83,2.79A1.69,1.69,0,0,1,196.93,202.5Z"/><path fill="#06033e" d="M204.46,206.85,199.59,204c-.4-.23-.35-.62.11-.89l4.83-2.78a1.67,1.67,0,0,1,1.52-.07l4.88,2.82c.39.22.34.62-.11.88L206,206.79A1.69,1.69,0,0,1,204.46,206.85Z"/><path fill="#06033e" d="M212,211.2l-4.87-2.82c-.4-.22-.35-.62.11-.88l4.83-2.79a1.69,1.69,0,0,1,1.53-.06l4.87,2.81c.39.23.34.63-.11.89l-4.83,2.79A1.69,1.69,0,0,1,212,211.2Z"/><path fill="#06033e" d="M219.52,215.55l-4.87-2.82c-.39-.22-.35-.62.11-.88l4.83-2.79a1.69,1.69,0,0,1,1.53-.06l4.87,2.81c.39.23.34.62-.11.88l-4.83,2.79A1.73,1.73,0,0,1,219.52,215.55Z"/><path fill="#06033e" d="M227.05,219.89l-4.87-2.81c-.39-.23-.35-.62.11-.88l4.83-2.79a1.73,1.73,0,0,1,1.53-.07l4.87,2.82c.39.23.34.62-.11.88l-4.83,2.79A1.69,1.69,0,0,1,227.05,219.89Z"/><path fill="#06033e" d="M234.58,224.24l-4.87-2.81c-.39-.23-.35-.62.11-.89l4.83-2.78a1.69,1.69,0,0,1,1.53-.07l4.87,2.82c.39.22.34.62-.11.88l-4.83,2.79A1.69,1.69,0,0,1,234.58,224.24Z"/><path fill="#06033e" d="M242.11,228.59l-4.87-2.82c-.39-.22-.34-.62.11-.88l4.83-2.79a1.69,1.69,0,0,1,1.53-.06l4.87,2.81c.39.23.34.63-.11.89l-4.83,2.79A1.69,1.69,0,0,1,242.11,228.59Z"/><path fill="#06033e" d="M249.64,232.94l-4.87-2.82c-.39-.22-.34-.62.11-.88l4.83-2.79a1.69,1.69,0,0,1,1.53-.06l4.87,2.81c.39.23.34.62-.11.88l-4.83,2.79A1.69,1.69,0,0,1,249.64,232.94Z"/><path fill="#06033e" d="M193,191.75l-4.88-2.81c-.39-.23-.34-.63.11-.89l4.83-2.79a1.69,1.69,0,0,1,1.53-.06l4.88,2.82c.39.22.34.62-.11.88l-4.84,2.79A1.67,1.67,0,0,1,193,191.75Z"/><path fill="#06033e" d="M185.32,187.34l-4.87-2.82c-.39-.22-.34-.62.11-.88l4.83-2.79a1.69,1.69,0,0,1,1.53-.06l4.87,2.81c.39.23.35.62-.11.89l-4.83,2.78A1.69,1.69,0,0,1,185.32,187.34Z"/><path fill="#06033e" d="M177.67,182.92l-10.5-6.06c-.39-.23-.35-.63.11-.89l4.83-2.79a1.69,1.69,0,0,1,1.53-.06l10.5,6.06c.39.23.34.62-.11.89l-4.83,2.79A1.73,1.73,0,0,1,177.67,182.92Z"/><path fill="#06033e" d="M183,177.54l-8.52-4.92c-.39-.22-.35-.62.11-.88l4.83-2.79a1.69,1.69,0,0,1,1.53-.06l8.52,4.92c.39.22.34.62-.11.88l-4.83,2.79A1.69,1.69,0,0,1,183,177.54Z"/><path fill="#06033e" d="M200.5,196.1l-4.88-2.82c-.39-.22-.34-.62.11-.88l4.83-2.79a1.69,1.69,0,0,1,1.53-.06l4.88,2.81c.39.23.34.62-.11.89L202,196A1.67,1.67,0,0,1,200.5,196.1Z"/><path fill="#06033e" d="M208,200.45l-4.88-2.82c-.39-.23-.34-.62.11-.88l4.83-2.79a1.69,1.69,0,0,1,1.53-.06l4.88,2.81c.39.23.34.62-.11.88l-4.84,2.79A1.71,1.71,0,0,1,208,200.45Z"/><path fill="#06033e" d="M215.56,204.79,210.68,202c-.39-.23-.34-.62.11-.88l4.83-2.79a1.73,1.73,0,0,1,1.53-.07l4.88,2.82c.39.22.34.62-.11.88l-4.83,2.79A1.69,1.69,0,0,1,215.56,204.79Z"/><path fill="#06033e" d="M223.09,209.14l-4.88-2.81c-.39-.23-.34-.63.11-.89l4.83-2.79a1.69,1.69,0,0,1,1.53-.06l4.88,2.82c.39.22.34.62-.11.88l-4.83,2.79A1.69,1.69,0,0,1,223.09,209.14Z"/><path fill="#06033e" d="M230.62,213.49l-4.88-2.82c-.39-.22-.34-.62.11-.88l4.83-2.79a1.69,1.69,0,0,1,1.53-.06l4.88,2.81c.39.23.34.62-.11.89l-4.83,2.79A1.73,1.73,0,0,1,230.62,213.49Z"/><path fill="#06033e" d="M238.15,217.84,233.27,215c-.39-.23-.34-.62.11-.88l4.83-2.79a1.69,1.69,0,0,1,1.53-.06l4.88,2.81c.39.23.34.62-.11.88l-4.83,2.79A1.73,1.73,0,0,1,238.15,217.84Z"/><path fill="#06033e" d="M245.68,222.18l-4.88-2.81c-.39-.23-.34-.62.11-.88l4.83-2.79a1.73,1.73,0,0,1,1.53-.07l4.88,2.82c.39.23.34.62-.11.88l-4.83,2.79A1.69,1.69,0,0,1,245.68,222.18Z"/><path fill="#06033e" d="M253.21,226.53l-4.88-2.81c-.39-.23-.34-.62.11-.89l4.83-2.79a1.73,1.73,0,0,1,1.53-.06l4.88,2.82c.39.22.34.62-.11.88l-4.83,2.79A1.69,1.69,0,0,1,253.21,226.53Z"/><path fill="#06033e" d="M260.74,230.88l-4.88-2.82c-.39-.22-.34-.62.11-.88l4.83-2.79a1.69,1.69,0,0,1,1.53-.06l4.88,2.81c.39.23.34.63-.11.89l-4.83,2.79A1.73,1.73,0,0,1,260.74,230.88Z"/><path fill="#06033e" d="M274.13,238.61l-10.64-6.14c-.39-.23-.35-.63.11-.89l4.83-2.79a1.69,1.69,0,0,1,1.53-.06l10.64,6.14c.39.23.34.62-.11.89l-4.84,2.78A1.67,1.67,0,0,1,274.13,238.61Z"/><path fill="#06033e" d="M288.79,230.14l-9-5.18c-.39-.23-.35-.62.11-.88l4.83-2.79a1.73,1.73,0,0,1,1.53-.07l9,5.19c.39.23.34.62-.11.88l-4.84,2.79A1.67,1.67,0,0,1,288.79,230.14Z"/><path fill="#06033e" d="M213.68,195.25l-4.87-2.82c-.39-.22-.34-.62.11-.88l4.83-2.79a1.69,1.69,0,0,1,1.53-.06l4.87,2.81c.39.23.35.62-.11.88l-4.83,2.79A1.69,1.69,0,0,1,213.68,195.25Z"/><path fill="#06033e" d="M206,190.79,201.09,188c-.39-.23-.34-.62.11-.89l4.83-2.78a1.7,1.7,0,0,1,1.53-.07l4.88,2.82c.39.22.34.62-.11.88l-4.84,2.79A1.67,1.67,0,0,1,206,190.79Z"/><path fill="#06033e" d="M198.25,186.34l-4.88-2.82c-.39-.23-.34-.62.11-.88l4.83-2.79a1.69,1.69,0,0,1,1.53-.06l4.88,2.81c.39.23.34.62-.11.88l-4.83,2.79A1.73,1.73,0,0,1,198.25,186.34Z"/><path fill="#06033e" d="M190.53,181.88l-4.87-2.81c-.4-.23-.35-.63.11-.89l4.83-2.79a1.67,1.67,0,0,1,1.52-.06l4.88,2.82c.39.22.34.62-.11.88l-4.83,2.79A1.69,1.69,0,0,1,190.53,181.88Z"/><path fill="#06033e" d="M221.21,199.6l-4.87-2.82c-.39-.23-.34-.62.11-.88l4.83-2.79a1.69,1.69,0,0,1,1.53-.06l4.87,2.81c.39.23.35.62-.11.88l-4.83,2.79A1.73,1.73,0,0,1,221.21,199.6Z"/><path fill="#06033e" d="M228.74,203.94l-4.87-2.81c-.39-.23-.34-.62.11-.88l4.83-2.79a1.73,1.73,0,0,1,1.53-.07l4.87,2.82c.39.22.35.62-.11.88l-4.83,2.79A1.69,1.69,0,0,1,228.74,203.94Z"/><path fill="#06033e" d="M236.28,208.29l-4.88-2.81c-.39-.23-.34-.63.11-.89l4.83-2.79a1.69,1.69,0,0,1,1.53-.06l4.87,2.82c.4.22.35.62-.11.88l-4.83,2.79A1.67,1.67,0,0,1,236.28,208.29Z"/><path fill="#06033e" d="M243.81,212.64l-4.88-2.82c-.39-.22-.34-.62.11-.88l4.83-2.79a1.69,1.69,0,0,1,1.53-.06l4.87,2.81c.4.23.35.62-.11.89l-4.83,2.78A1.67,1.67,0,0,1,243.81,212.64Z"/><path fill="#06033e" d="M251.34,217l-4.88-2.82c-.39-.23-.34-.62.11-.88l4.83-2.79a1.69,1.69,0,0,1,1.53-.06l4.87,2.81c.4.23.35.62-.11.88l-4.83,2.79A1.71,1.71,0,0,1,251.34,217Z"/><path fill="#06033e" d="M258.87,221.33,254,218.52c-.39-.23-.34-.62.11-.88l4.83-2.79a1.73,1.73,0,0,1,1.53-.07l4.87,2.82c.4.22.35.62-.11.88l-4.83,2.79A1.67,1.67,0,0,1,258.87,221.33Z"/><path fill="#06033e" d="M266.4,225.68l-4.88-2.81c-.39-.23-.34-.63.11-.89l4.83-2.79a1.69,1.69,0,0,1,1.53-.06l4.87,2.82c.4.22.35.62-.1.88l-4.84,2.79A1.67,1.67,0,0,1,266.4,225.68Z"/><path fill="#06033e" d="M273.93,230l-4.88-2.82c-.39-.22-.34-.62.11-.88l4.83-2.79a1.69,1.69,0,0,1,1.53-.06l4.88,2.81c.39.23.34.62-.11.89L275.45,230A1.7,1.7,0,0,1,273.93,230Z"/><path fill="#06033e" d="M281.46,234.38l-4.88-2.82c-.39-.23-.34-.62.11-.88l4.83-2.79a1.69,1.69,0,0,1,1.53-.06l4.88,2.81c.39.23.34.62-.11.88L283,234.31A1.71,1.71,0,0,1,281.46,234.38Z"/><path fill="#06033e" d="M209.72,184.49l-4.88-2.81c-.39-.23-.34-.62.11-.88l4.83-2.79a1.73,1.73,0,0,1,1.53-.07l4.88,2.82c.39.23.34.62-.11.88l-4.83,2.79A1.69,1.69,0,0,1,209.72,184.49Z"/><path fill="#06033e" d="M202.23,180.17l-4.88-2.82c-.39-.22-.34-.62.11-.88l4.83-2.79a1.69,1.69,0,0,1,1.53-.06l4.87,2.81c.4.23.35.62-.1.89l-4.84,2.78A1.67,1.67,0,0,1,202.23,180.17Z"/><path fill="#06033e" d="M194.73,175.84,189.86,173c-.39-.23-.35-.62.11-.89l4.83-2.78a1.69,1.69,0,0,1,1.53-.07l4.87,2.82c.39.22.34.62-.11.88l-4.83,2.79A1.69,1.69,0,0,1,194.73,175.84Z"/><path fill="#06033e" d="M187.24,171.52l-4.88-2.82c-.39-.23-.34-.62.11-.88l4.84-2.79a1.67,1.67,0,0,1,1.52-.06l4.88,2.81c.39.23.34.62-.11.88l-4.83,2.79A1.73,1.73,0,0,1,187.24,171.52Z"/><path fill="#06033e" d="M195,167.07l-4.88-2.82c-.39-.22-.34-.62.11-.88l1.6-.92a1.67,1.67,0,0,1,1.52-.06l4.88,2.81c.39.23.34.62-.11.88l-1.6.92A1.67,1.67,0,0,1,195,167.07Z"/><path fill="#06033e" d="M204.72,172.71l-4.87-2.81c-.39-.23-.34-.62.11-.88l1.59-.93a1.69,1.69,0,0,1,1.53-.06l4.88,2.82c.39.22.34.62-.11.88l-1.6.92A1.69,1.69,0,0,1,204.72,172.71Z"/><path fill="#06033e" d="M212.19,177l-4.88-2.81c-.39-.23-.34-.63.11-.89l1.6-.92a1.67,1.67,0,0,1,1.52-.06l4.88,2.81c.39.23.34.62-.11.89l-1.6.92A1.67,1.67,0,0,1,212.19,177Z"/><path fill="#06033e" d="M219.65,181.33l-4.88-2.82c-.39-.22-.34-.62.11-.88l1.6-.92a1.67,1.67,0,0,1,1.52-.06l4.88,2.81c.39.23.34.62-.11.88l-1.6.93A1.67,1.67,0,0,1,219.65,181.33Z"/><path fill="#06033e" d="M227.11,185.64l-4.88-2.82c-.39-.22-.34-.62.11-.88l1.6-.92a1.73,1.73,0,0,1,1.53-.07l4.87,2.82c.39.23.35.62-.11.88l-1.59.92A1.73,1.73,0,0,1,227.11,185.64Z"/><path fill="#06033e" d="M268.77,209.69l-4.88-2.82c-.39-.22-.34-.62.11-.88l1.6-.92a1.71,1.71,0,0,1,1.52-.07l4.88,2.82c.39.23.34.62-.11.88l-1.6.92A1.67,1.67,0,0,1,268.77,209.69Z"/><path fill="#06033e" d="M276.23,214l-4.88-2.82c-.39-.23-.34-.62.11-.88l1.6-.92a1.73,1.73,0,0,1,1.53-.07l4.87,2.82c.39.22.34.62-.11.88l-1.6.92A1.71,1.71,0,0,1,276.23,214Z"/><path fill="#06033e" d="M283.69,218.3l-4.88-2.81c-.39-.23-.34-.62.11-.88l1.6-.93a1.69,1.69,0,0,1,1.53-.06l4.87,2.82c.39.22.35.62-.11.88l-1.59.92A1.69,1.69,0,0,1,283.69,218.3Z"/><path fill="#06033e" d="M291.15,222.61l-4.88-2.81c-.39-.23-.34-.62.11-.89L288,218a1.69,1.69,0,0,1,1.53-.06l4.87,2.81c.4.23.35.62-.11.89l-1.59.92A1.69,1.69,0,0,1,291.15,222.61Z"/><path fill="#06033e" d="M217.25,188.84,212.37,186c-.39-.23-.34-.62.11-.89l4.83-2.78a1.7,1.7,0,0,1,1.53-.07l4.88,2.82c.39.22.34.62-.11.88l-4.83,2.79A1.69,1.69,0,0,1,217.25,188.84Z"/><path fill="#06033e" d="M224.78,193.19l-4.88-2.82c-.39-.22-.34-.62.11-.88l4.83-2.79a1.69,1.69,0,0,1,1.53-.06l4.88,2.81c.39.23.34.63-.11.89l-4.83,2.79A1.69,1.69,0,0,1,224.78,193.19Z"/><path fill="#06033e" d="M232.31,197.54l-4.88-2.82c-.39-.22-.34-.62.11-.88l4.83-2.79a1.69,1.69,0,0,1,1.53-.06l4.88,2.81c.39.23.34.62-.11.88l-4.83,2.79A1.73,1.73,0,0,1,232.31,197.54Z"/><path fill="#06033e" d="M239.84,201.88,235,199.07c-.39-.23-.34-.62.11-.88l4.84-2.79a1.71,1.71,0,0,1,1.52-.07l4.88,2.82c.39.23.34.62-.11.88l-4.83,2.79A1.69,1.69,0,0,1,239.84,201.88Z"/><path fill="#06033e" d="M247.37,206.23l-4.88-2.81c-.39-.23-.34-.62.11-.89l4.84-2.78a1.67,1.67,0,0,1,1.52-.07l4.88,2.82c.39.22.34.62-.11.88l-4.83,2.79A1.69,1.69,0,0,1,247.37,206.23Z"/><path fill="#06033e" d="M254.9,210.58,250,207.76c-.39-.22-.34-.62.11-.88l4.84-2.79a1.67,1.67,0,0,1,1.52-.06l4.88,2.81c.39.23.34.63-.11.89l-4.83,2.79A1.69,1.69,0,0,1,254.9,210.58Z"/><path fill="#06033e" d="M262.43,214.93l-4.88-2.82c-.39-.22-.34-.62.11-.88l4.84-2.79a1.67,1.67,0,0,1,1.52-.06l4.88,2.81c.39.23.34.62-.11.88L264,214.86A1.73,1.73,0,0,1,262.43,214.93Z"/><path fill="#06033e" d="M270,219.27l-4.87-2.81c-.4-.23-.35-.62.1-.88l4.84-2.79a1.71,1.71,0,0,1,1.52-.07l4.88,2.82c.39.23.34.62-.11.88l-4.83,2.79A1.69,1.69,0,0,1,270,219.27Z"/><path fill="#06033e" d="M277.49,223.62l-4.87-2.81c-.4-.23-.35-.62.11-.88l4.83-2.79a1.67,1.67,0,0,1,1.52-.07l4.88,2.82c.39.22.34.62-.11.88L279,223.56A1.69,1.69,0,0,1,277.49,223.62Z"/><path fill="#06033e" d="M174.2,189.38l-14.36-8.29c-.39-.23-.35-.62.11-.88l4.83-2.79a1.69,1.69,0,0,1,1.53-.07l14.36,8.29c.39.23.34.62-.11.89l-4.83,2.79A1.73,1.73,0,0,1,174.2,189.38Z"/><path fill="#06033e" d="M266.71,242.79l-14.36-8.29c-.39-.23-.34-.62.11-.88l4.83-2.79a1.73,1.73,0,0,1,1.53-.07l14.36,8.3c.39.22.34.62-.11.88l-4.83,2.79A1.69,1.69,0,0,1,266.71,242.79Z"/><path fill="#06033e" d="M236.59,235l-4.87-2.82c-.39-.22-.34-.62.11-.88l5.75-3.32a1.73,1.73,0,0,1,1.53-.07l4.88,2.82c.39.22.34.62-.11.88l-5.76,3.32A1.73,1.73,0,0,1,236.59,235Z"/><path fill="#06033e" d="M181.91,203.43l-7.8-4.5c-.39-.22-.34-.62.11-.88l5.76-3.32a1.71,1.71,0,0,1,1.52-.07l7.8,4.51c.39.22.34.62-.11.88l-5.75,3.32A1.69,1.69,0,0,1,181.91,203.43Z"/><path fill="#06033e" d="M229.34,230.82l-7.8-4.5c-.39-.23-.34-.63.11-.89l5.76-3.32a1.67,1.67,0,0,1,1.52-.06l7.8,4.5c.39.23.34.62-.11.88l-5.75,3.32A1.7,1.7,0,0,1,229.34,230.82Z"/><path fill="#06033e" d="M192.77,209.71,185,205.2c-.4-.22-.35-.62.11-.88l5.75-3.32a1.69,1.69,0,0,1,1.53-.06l7.8,4.5c.39.22.34.62-.11.88l-5.76,3.32A1.73,1.73,0,0,1,192.77,209.71Z"/><path fill="#06033e" d="M192.42,201l33.91,19.57a.46.46,0,0,1,0,.88l-5.87,3.39a1.72,1.72,0,0,1-1.53,0L185,205.23Z"/><path fill="#06033e" d="M257.64,242.89l5.43,3.14c.32.18.28.5-.09.72l-2.35,1.36a1.42,1.42,0,0,1-1.25,0L253.94,245c-.32-.18-.28-.51.09-.72l2.36-1.36A1.38,1.38,0,0,1,257.64,242.89Z"/><path fill="#06033e" d="M250.05,238.51l5.43,3.13c.32.19.28.51-.09.72L253,243.72a1.39,1.39,0,0,1-1.25.06l-5.43-3.14c-.32-.19-.28-.51.09-.72l2.36-1.36A1.35,1.35,0,0,1,250.05,238.51Z"/><path fill="#06033e" d="M242.52,234.16l5.43,3.13c.32.19.28.51-.09.73l-2.36,1.36a1.42,1.42,0,0,1-1.25.05l-5.43-3.14c-.32-.18-.28-.51.09-.72l2.36-1.36A1.38,1.38,0,0,1,242.52,234.16Z"/><path fill="#06033e" d="M254.21,236.1l5.43,3.14c.32.19.28.51-.09.72l-2.36,1.36a1.35,1.35,0,0,1-1.25.05l-5.43-3.13c-.32-.19-.28-.51.09-.72l2.35-1.36A1.41,1.41,0,0,1,254.21,236.1Z"/></g><g opacity=".4"><path fill="#06033e" d="M156.4,188.7l-4.88-2.81c-.39-.23-.34-.62.11-.88l5.76-3.33a1.67,1.67,0,0,1,1.52-.06l4.88,2.82c.39.22.34.62-.11.88l-5.76,3.32A1.67,1.67,0,0,1,156.4,188.7Z"/><path fill="#06033e" d="M163.93,193.05l-4.88-2.81c-.39-.23-.34-.62.11-.89l5.76-3.32a1.67,1.67,0,0,1,1.52-.06l4.88,2.81c.39.23.34.62-.11.89L165.45,193A1.67,1.67,0,0,1,163.93,193.05Z"/><path fill="#06033e" d="M171.46,197.4l-4.88-2.82c-.39-.22-.34-.62.11-.88l5.76-3.32a1.67,1.67,0,0,1,1.52-.06l4.88,2.81c.39.23.34.62-.11.88L173,197.34A1.67,1.67,0,0,1,171.46,197.4Z"/><path fill="#06033e" d="M181.87,193.81,177,191c-.4-.22-.35-.62.11-.88l4.83-2.79a1.67,1.67,0,0,1,1.52-.06l4.88,2.81c.39.23.34.63-.11.89l-4.83,2.79A1.72,1.72,0,0,1,181.87,193.81Z"/><path fill="#06033e" d="M189.4,198.16l-4.87-2.82c-.4-.22-.35-.62.11-.88l4.83-2.79a1.67,1.67,0,0,1,1.52-.06l4.88,2.81c.39.23.34.62-.11.88l-4.83,2.79A1.73,1.73,0,0,1,189.4,198.16Z"/><path fill="#06033e" d="M196.93,202.5l-4.87-2.81c-.4-.23-.35-.62.11-.88L197,196a1.71,1.71,0,0,1,1.52-.07l4.88,2.82c.39.23.34.62-.11.88l-4.83,2.79A1.69,1.69,0,0,1,196.93,202.5Z"/><path fill="#06033e" d="M204.46,206.85,199.59,204c-.4-.23-.35-.62.11-.89l4.83-2.78a1.67,1.67,0,0,1,1.52-.07l4.88,2.82c.39.22.34.62-.11.88L206,206.79A1.69,1.69,0,0,1,204.46,206.85Z"/><path fill="#06033e" d="M212,211.2l-4.87-2.82c-.4-.22-.35-.62.11-.88l4.83-2.79a1.69,1.69,0,0,1,1.53-.06l4.87,2.81c.39.23.34.63-.11.89l-4.83,2.79A1.69,1.69,0,0,1,212,211.2Z"/><path fill="#06033e" d="M219.52,215.55l-4.87-2.82c-.39-.22-.35-.62.11-.88l4.83-2.79a1.69,1.69,0,0,1,1.53-.06l4.87,2.81c.39.23.34.62-.11.88l-4.83,2.79A1.73,1.73,0,0,1,219.52,215.55Z"/><path fill="#06033e" d="M227.05,219.89l-4.87-2.81c-.39-.23-.35-.62.11-.88l4.83-2.79a1.73,1.73,0,0,1,1.53-.07l4.87,2.82c.39.23.34.62-.11.88l-4.83,2.79A1.69,1.69,0,0,1,227.05,219.89Z"/><path fill="#06033e" d="M234.58,224.24l-4.87-2.81c-.39-.23-.35-.62.11-.89l4.83-2.78a1.69,1.69,0,0,1,1.53-.07l4.87,2.82c.39.22.34.62-.11.88l-4.83,2.79A1.69,1.69,0,0,1,234.58,224.24Z"/><path fill="#06033e" d="M242.11,228.59l-4.87-2.82c-.39-.22-.34-.62.11-.88l4.83-2.79a1.69,1.69,0,0,1,1.53-.06l4.87,2.81c.39.23.34.63-.11.89l-4.83,2.79A1.69,1.69,0,0,1,242.11,228.59Z"/><path fill="#06033e" d="M249.64,232.94l-4.87-2.82c-.39-.22-.34-.62.11-.88l4.83-2.79a1.69,1.69,0,0,1,1.53-.06l4.87,2.81c.39.23.34.62-.11.88l-4.83,2.79A1.69,1.69,0,0,1,249.64,232.94Z"/><path fill="#06033e" d="M193,191.75l-4.88-2.81c-.39-.23-.34-.63.11-.89l4.83-2.79a1.69,1.69,0,0,1,1.53-.06l4.88,2.82c.39.22.34.62-.11.88l-4.84,2.79A1.67,1.67,0,0,1,193,191.75Z"/><path fill="#06033e" d="M185.32,187.34l-4.87-2.82c-.39-.22-.34-.62.11-.88l4.83-2.79a1.69,1.69,0,0,1,1.53-.06l4.87,2.81c.39.23.35.62-.11.89l-4.83,2.78A1.69,1.69,0,0,1,185.32,187.34Z"/><path fill="#06033e" d="M177.67,182.92l-10.5-6.06c-.39-.23-.35-.63.11-.89l4.83-2.79a1.69,1.69,0,0,1,1.53-.06l10.5,6.06c.39.23.34.62-.11.89l-4.83,2.79A1.73,1.73,0,0,1,177.67,182.92Z"/><path fill="#06033e" d="M183,177.54l-8.52-4.92c-.39-.22-.35-.62.11-.88l4.83-2.79a1.69,1.69,0,0,1,1.53-.06l8.52,4.92c.39.22.34.62-.11.88l-4.83,2.79A1.69,1.69,0,0,1,183,177.54Z"/><path fill="#06033e" d="M200.5,196.1l-4.88-2.82c-.39-.22-.34-.62.11-.88l4.83-2.79a1.69,1.69,0,0,1,1.53-.06l4.88,2.81c.39.23.34.62-.11.89L202,196A1.67,1.67,0,0,1,200.5,196.1Z"/><path fill="#06033e" d="M208,200.45l-4.88-2.82c-.39-.23-.34-.62.11-.88l4.83-2.79a1.69,1.69,0,0,1,1.53-.06l4.88,2.81c.39.23.34.62-.11.88l-4.84,2.79A1.71,1.71,0,0,1,208,200.45Z"/><path fill="#06033e" d="M215.56,204.79,210.68,202c-.39-.23-.34-.62.11-.88l4.83-2.79a1.73,1.73,0,0,1,1.53-.07l4.88,2.82c.39.22.34.62-.11.88l-4.83,2.79A1.69,1.69,0,0,1,215.56,204.79Z"/><path fill="#06033e" d="M223.09,209.14l-4.88-2.81c-.39-.23-.34-.63.11-.89l4.83-2.79a1.69,1.69,0,0,1,1.53-.06l4.88,2.82c.39.22.34.62-.11.88l-4.83,2.79A1.69,1.69,0,0,1,223.09,209.14Z"/><path fill="#06033e" d="M230.62,213.49l-4.88-2.82c-.39-.22-.34-.62.11-.88l4.83-2.79a1.69,1.69,0,0,1,1.53-.06l4.88,2.81c.39.23.34.62-.11.89l-4.83,2.79A1.73,1.73,0,0,1,230.62,213.49Z"/><path fill="#06033e" d="M238.15,217.84,233.27,215c-.39-.23-.34-.62.11-.88l4.83-2.79a1.69,1.69,0,0,1,1.53-.06l4.88,2.81c.39.23.34.62-.11.88l-4.83,2.79A1.73,1.73,0,0,1,238.15,217.84Z"/><path fill="#06033e" d="M245.68,222.18l-4.88-2.81c-.39-.23-.34-.62.11-.88l4.83-2.79a1.73,1.73,0,0,1,1.53-.07l4.88,2.82c.39.23.34.62-.11.88l-4.83,2.79A1.69,1.69,0,0,1,245.68,222.18Z"/><path fill="#06033e" d="M253.21,226.53l-4.88-2.81c-.39-.23-.34-.62.11-.89l4.83-2.79a1.73,1.73,0,0,1,1.53-.06l4.88,2.82c.39.22.34.62-.11.88l-4.83,2.79A1.69,1.69,0,0,1,253.21,226.53Z"/><path fill="#06033e" d="M260.74,230.88l-4.88-2.82c-.39-.22-.34-.62.11-.88l4.83-2.79a1.69,1.69,0,0,1,1.53-.06l4.88,2.81c.39.23.34.63-.11.89l-4.83,2.79A1.73,1.73,0,0,1,260.74,230.88Z"/><path fill="#06033e" d="M274.13,238.61l-10.64-6.14c-.39-.23-.35-.63.11-.89l4.83-2.79a1.69,1.69,0,0,1,1.53-.06l10.64,6.14c.39.23.34.62-.11.89l-4.84,2.78A1.67,1.67,0,0,1,274.13,238.61Z"/><path fill="#06033e" d="M288.79,230.14l-9-5.18c-.39-.23-.35-.62.11-.88l4.83-2.79a1.73,1.73,0,0,1,1.53-.07l9,5.19c.39.23.34.62-.11.88l-4.84,2.79A1.67,1.67,0,0,1,288.79,230.14Z"/><path fill="#06033e" d="M213.68,195.25l-4.87-2.82c-.39-.22-.34-.62.11-.88l4.83-2.79a1.69,1.69,0,0,1,1.53-.06l4.87,2.81c.39.23.35.62-.11.88l-4.83,2.79A1.69,1.69,0,0,1,213.68,195.25Z"/><path fill="#06033e" d="M206,190.79,201.09,188c-.39-.23-.34-.62.11-.89l4.83-2.78a1.7,1.7,0,0,1,1.53-.07l4.88,2.82c.39.22.34.62-.11.88l-4.84,2.79A1.67,1.67,0,0,1,206,190.79Z"/><path fill="#06033e" d="M198.25,186.34l-4.88-2.82c-.39-.23-.34-.62.11-.88l4.83-2.79a1.69,1.69,0,0,1,1.53-.06l4.88,2.81c.39.23.34.62-.11.88l-4.83,2.79A1.73,1.73,0,0,1,198.25,186.34Z"/><path fill="#06033e" d="M190.53,181.88l-4.87-2.81c-.4-.23-.35-.63.11-.89l4.83-2.79a1.67,1.67,0,0,1,1.52-.06l4.88,2.82c.39.22.34.62-.11.88l-4.83,2.79A1.69,1.69,0,0,1,190.53,181.88Z"/><path fill="#06033e" d="M221.21,199.6l-4.87-2.82c-.39-.23-.34-.62.11-.88l4.83-2.79a1.69,1.69,0,0,1,1.53-.06l4.87,2.81c.39.23.35.62-.11.88l-4.83,2.79A1.73,1.73,0,0,1,221.21,199.6Z"/><path fill="#06033e" d="M228.74,203.94l-4.87-2.81c-.39-.23-.34-.62.11-.88l4.83-2.79a1.73,1.73,0,0,1,1.53-.07l4.87,2.82c.39.22.35.62-.11.88l-4.83,2.79A1.69,1.69,0,0,1,228.74,203.94Z"/><path fill="#06033e" d="M236.28,208.29l-4.88-2.81c-.39-.23-.34-.63.11-.89l4.83-2.79a1.69,1.69,0,0,1,1.53-.06l4.87,2.82c.4.22.35.62-.11.88l-4.83,2.79A1.67,1.67,0,0,1,236.28,208.29Z"/><path fill="#06033e" d="M243.81,212.64l-4.88-2.82c-.39-.22-.34-.62.11-.88l4.83-2.79a1.69,1.69,0,0,1,1.53-.06l4.87,2.81c.4.23.35.62-.11.89l-4.83,2.78A1.67,1.67,0,0,1,243.81,212.64Z"/><path fill="#06033e" d="M251.34,217l-4.88-2.82c-.39-.23-.34-.62.11-.88l4.83-2.79a1.69,1.69,0,0,1,1.53-.06l4.87,2.81c.4.23.35.62-.11.88l-4.83,2.79A1.71,1.71,0,0,1,251.34,217Z"/><path fill="#06033e" d="M258.87,221.33,254,218.52c-.39-.23-.34-.62.11-.88l4.83-2.79a1.73,1.73,0,0,1,1.53-.07l4.87,2.82c.4.22.35.62-.11.88l-4.83,2.79A1.67,1.67,0,0,1,258.87,221.33Z"/><path fill="#06033e" d="M266.4,225.68l-4.88-2.81c-.39-.23-.34-.63.11-.89l4.83-2.79a1.69,1.69,0,0,1,1.53-.06l4.87,2.82c.4.22.35.62-.1.88l-4.84,2.79A1.67,1.67,0,0,1,266.4,225.68Z"/><path fill="#06033e" d="M273.93,230l-4.88-2.82c-.39-.22-.34-.62.11-.88l4.83-2.79a1.69,1.69,0,0,1,1.53-.06l4.88,2.81c.39.23.34.62-.11.89L275.45,230A1.7,1.7,0,0,1,273.93,230Z"/><path fill="#06033e" d="M281.46,234.38l-4.88-2.82c-.39-.23-.34-.62.11-.88l4.83-2.79a1.69,1.69,0,0,1,1.53-.06l4.88,2.81c.39.23.34.62-.11.88L283,234.31A1.71,1.71,0,0,1,281.46,234.38Z"/><path fill="#06033e" d="M209.72,184.49l-4.88-2.81c-.39-.23-.34-.62.11-.88l4.83-2.79a1.73,1.73,0,0,1,1.53-.07l4.88,2.82c.39.23.34.62-.11.88l-4.83,2.79A1.69,1.69,0,0,1,209.72,184.49Z"/><path fill="#06033e" d="M202.23,180.17l-4.88-2.82c-.39-.22-.34-.62.11-.88l4.83-2.79a1.69,1.69,0,0,1,1.53-.06l4.87,2.81c.4.23.35.62-.1.89l-4.84,2.78A1.67,1.67,0,0,1,202.23,180.17Z"/><path fill="#06033e" d="M194.73,175.84,189.86,173c-.39-.23-.35-.62.11-.89l4.83-2.78a1.69,1.69,0,0,1,1.53-.07l4.87,2.82c.39.22.34.62-.11.88l-4.83,2.79A1.69,1.69,0,0,1,194.73,175.84Z"/><path fill="#06033e" d="M187.24,171.52l-4.88-2.82c-.39-.23-.34-.62.11-.88l4.84-2.79a1.67,1.67,0,0,1,1.52-.06l4.88,2.81c.39.23.34.62-.11.88l-4.83,2.79A1.73,1.73,0,0,1,187.24,171.52Z"/><path fill="#06033e" d="M195,167.07l-4.88-2.82c-.39-.22-.34-.62.11-.88l1.6-.92a1.67,1.67,0,0,1,1.52-.06l4.88,2.81c.39.23.34.62-.11.88l-1.6.92A1.67,1.67,0,0,1,195,167.07Z"/><path fill="#06033e" d="M204.72,172.71l-4.87-2.81c-.39-.23-.34-.62.11-.88l1.59-.93a1.69,1.69,0,0,1,1.53-.06l4.88,2.82c.39.22.34.62-.11.88l-1.6.92A1.69,1.69,0,0,1,204.72,172.71Z"/><path fill="#06033e" d="M212.19,177l-4.88-2.81c-.39-.23-.34-.63.11-.89l1.6-.92a1.67,1.67,0,0,1,1.52-.06l4.88,2.81c.39.23.34.62-.11.89l-1.6.92A1.67,1.67,0,0,1,212.19,177Z"/><path fill="#06033e" d="M219.65,181.33l-4.88-2.82c-.39-.22-.34-.62.11-.88l1.6-.92a1.67,1.67,0,0,1,1.52-.06l4.88,2.81c.39.23.34.62-.11.88l-1.6.93A1.67,1.67,0,0,1,219.65,181.33Z"/><path fill="#06033e" d="M227.11,185.64l-4.88-2.82c-.39-.22-.34-.62.11-.88l1.6-.92a1.73,1.73,0,0,1,1.53-.07l4.87,2.82c.39.23.35.62-.11.88l-1.59.92A1.73,1.73,0,0,1,227.11,185.64Z"/><path fill="#06033e" d="M268.77,209.69l-4.88-2.82c-.39-.22-.34-.62.11-.88l1.6-.92a1.71,1.71,0,0,1,1.52-.07l4.88,2.82c.39.23.34.62-.11.88l-1.6.92A1.67,1.67,0,0,1,268.77,209.69Z"/><path fill="#06033e" d="M276.23,214l-4.88-2.82c-.39-.23-.34-.62.11-.88l1.6-.92a1.73,1.73,0,0,1,1.53-.07l4.87,2.82c.39.22.34.62-.11.88l-1.6.92A1.71,1.71,0,0,1,276.23,214Z"/><path fill="#06033e" d="M283.69,218.3l-4.88-2.81c-.39-.23-.34-.62.11-.88l1.6-.93a1.69,1.69,0,0,1,1.53-.06l4.87,2.82c.39.22.35.62-.11.88l-1.59.92A1.69,1.69,0,0,1,283.69,218.3Z"/><path fill="#06033e" d="M291.15,222.61l-4.88-2.81c-.39-.23-.34-.62.11-.89L288,218a1.69,1.69,0,0,1,1.53-.06l4.87,2.81c.4.23.35.62-.11.89l-1.59.92A1.69,1.69,0,0,1,291.15,222.61Z"/><path fill="#06033e" d="M217.25,188.84,212.37,186c-.39-.23-.34-.62.11-.89l4.83-2.78a1.7,1.7,0,0,1,1.53-.07l4.88,2.82c.39.22.34.62-.11.88l-4.83,2.79A1.69,1.69,0,0,1,217.25,188.84Z"/><path fill="#06033e" d="M224.78,193.19l-4.88-2.82c-.39-.22-.34-.62.11-.88l4.83-2.79a1.69,1.69,0,0,1,1.53-.06l4.88,2.81c.39.23.34.63-.11.89l-4.83,2.79A1.69,1.69,0,0,1,224.78,193.19Z"/><path fill="#06033e" d="M232.31,197.54l-4.88-2.82c-.39-.22-.34-.62.11-.88l4.83-2.79a1.69,1.69,0,0,1,1.53-.06l4.88,2.81c.39.23.34.62-.11.88l-4.83,2.79A1.73,1.73,0,0,1,232.31,197.54Z"/><path fill="#06033e" d="M239.84,201.88,235,199.07c-.39-.23-.34-.62.11-.88l4.84-2.79a1.71,1.71,0,0,1,1.52-.07l4.88,2.82c.39.23.34.62-.11.88l-4.83,2.79A1.69,1.69,0,0,1,239.84,201.88Z"/><path fill="#06033e" d="M247.37,206.23l-4.88-2.81c-.39-.23-.34-.62.11-.89l4.84-2.78a1.67,1.67,0,0,1,1.52-.07l4.88,2.82c.39.22.34.62-.11.88l-4.83,2.79A1.69,1.69,0,0,1,247.37,206.23Z"/><path fill="#06033e" d="M254.9,210.58,250,207.76c-.39-.22-.34-.62.11-.88l4.84-2.79a1.67,1.67,0,0,1,1.52-.06l4.88,2.81c.39.23.34.63-.11.89l-4.83,2.79A1.69,1.69,0,0,1,254.9,210.58Z"/><path fill="#06033e" d="M262.43,214.93l-4.88-2.82c-.39-.22-.34-.62.11-.88l4.84-2.79a1.67,1.67,0,0,1,1.52-.06l4.88,2.81c.39.23.34.62-.11.88L264,214.86A1.73,1.73,0,0,1,262.43,214.93Z"/><path fill="#06033e" d="M270,219.27l-4.87-2.81c-.4-.23-.35-.62.1-.88l4.84-2.79a1.71,1.71,0,0,1,1.52-.07l4.88,2.82c.39.23.34.62-.11.88l-4.83,2.79A1.69,1.69,0,0,1,270,219.27Z"/><path fill="#06033e" d="M277.49,223.62l-4.87-2.81c-.4-.23-.35-.62.11-.88l4.83-2.79a1.67,1.67,0,0,1,1.52-.07l4.88,2.82c.39.22.34.62-.11.88L279,223.56A1.69,1.69,0,0,1,277.49,223.62Z"/><path fill="#06033e" d="M174.2,189.38l-14.36-8.29c-.39-.23-.35-.62.11-.88l4.83-2.79a1.69,1.69,0,0,1,1.53-.07l14.36,8.29c.39.23.34.62-.11.89l-4.83,2.79A1.73,1.73,0,0,1,174.2,189.38Z"/><path fill="#06033e" d="M266.71,242.79l-14.36-8.29c-.39-.23-.34-.62.11-.88l4.83-2.79a1.73,1.73,0,0,1,1.53-.07l14.36,8.3c.39.22.34.62-.11.88l-4.83,2.79A1.69,1.69,0,0,1,266.71,242.79Z"/><path fill="#06033e" d="M236.59,235l-4.87-2.82c-.39-.22-.34-.62.11-.88l5.75-3.32a1.73,1.73,0,0,1,1.53-.07l4.88,2.82c.39.22.34.62-.11.88l-5.76,3.32A1.73,1.73,0,0,1,236.59,235Z"/><path fill="#06033e" d="M181.91,203.43l-7.8-4.5c-.39-.22-.34-.62.11-.88l5.76-3.32a1.71,1.71,0,0,1,1.52-.07l7.8,4.51c.39.22.34.62-.11.88l-5.75,3.32A1.69,1.69,0,0,1,181.91,203.43Z"/><path fill="#06033e" d="M229.34,230.82l-7.8-4.5c-.39-.23-.34-.63.11-.89l5.76-3.32a1.67,1.67,0,0,1,1.52-.06l7.8,4.5c.39.23.34.62-.11.88l-5.75,3.32A1.7,1.7,0,0,1,229.34,230.82Z"/><path fill="#06033e" d="M192.77,209.71,185,205.2c-.4-.22-.35-.62.11-.88l5.75-3.32a1.69,1.69,0,0,1,1.53-.06l7.8,4.5c.39.22.34.62-.11.88l-5.76,3.32A1.73,1.73,0,0,1,192.77,209.71Z"/><path fill="#06033e" d="M192.42,201l33.91,19.57a.46.46,0,0,1,0,.88l-5.87,3.39a1.72,1.72,0,0,1-1.53,0L185,205.23Z"/><path fill="#06033e" d="M257.64,242.89l5.43,3.14c.32.18.28.5-.09.72l-2.35,1.36a1.42,1.42,0,0,1-1.25,0L253.94,245c-.32-.18-.28-.51.09-.72l2.36-1.36A1.38,1.38,0,0,1,257.64,242.89Z"/><path fill="#06033e" d="M250.05,238.51l5.43,3.13c.32.19.28.51-.09.72L253,243.72a1.39,1.39,0,0,1-1.25.06l-5.43-3.14c-.32-.19-.28-.51.09-.72l2.36-1.36A1.35,1.35,0,0,1,250.05,238.51Z"/><path fill="#06033e" d="M242.52,234.16l5.43,3.13c.32.19.28.51-.09.73l-2.36,1.36a1.42,1.42,0,0,1-1.25.05l-5.43-3.14c-.32-.18-.28-.51.09-.72l2.36-1.36A1.38,1.38,0,0,1,242.52,234.16Z"/><path fill="#06033e" d="M254.21,236.1l5.43,3.14c.32.19.28.51-.09.72l-2.36,1.36a1.35,1.35,0,0,1-1.25.05l-5.43-3.13c-.32-.19-.28-.51.09-.72l2.35-1.36A1.41,1.41,0,0,1,254.21,236.1Z"/></g><path fill="url(#Áåçûìÿííûé_ãðàäèåíò_343-2)" d="M333.9,227.31,190,144.25a6.39,6.39,0,0,1-2.64-7.11L219.94,31.51c.8-2.62,3.29-3.68,5.55-2.38l143.86,83.06A6.36,6.36,0,0,1,372,119.3L339.46,224.93C338.65,227.55,336.16,228.62,333.9,227.31Z"/><path fill="url(#Áåçûìÿííûé_ãðàäèåíò_441)" d="M332.54,223.61,193,143a6.09,6.09,0,0,1-2.53-6.8l31.11-101c.77-2.51,3.15-3.53,5.31-2.28l139.54,80.63a6.07,6.07,0,0,1,2.52,6.8l-31.1,101C337.09,223.84,334.71,224.86,332.54,223.61Z"/><path fill="#06033e" d="M332.54,223.61,193,143a6.09,6.09,0,0,1-2.53-6.8l31.11-101c.77-2.51,3.15-3.53,5.31-2.28l139.54,80.63a6.07,6.07,0,0,1,2.52,6.8l-31.1,101C337.09,223.84,334.71,224.86,332.54,223.61Z" opacity=".4"/><path fill="#06033e" d="M332.54,223.61,193,143a6.09,6.09,0,0,1-2.53-6.8l31.11-101c.77-2.51,3.15-3.53,5.31-2.28l139.54,80.63a6.07,6.07,0,0,1,2.52,6.8l-31.1,101C337.09,223.84,334.71,224.86,332.54,223.61Z" opacity=".4"/><path fill="#06033e" d="M325.05,192.75l-94.46-54.54a4.16,4.16,0,0,1-1.73-4.66l21.36-69.36a2.42,2.42,0,0,1,3.65-1.56l94.46,54.53a4.19,4.19,0,0,1,1.73,4.67L328.7,191.19A2.43,2.43,0,0,1,325.05,192.75Z" opacity=".5"/><path fill="url(#Áåçûìÿííûé_ãðàäèåíò_343-3)" d="M312.29,194.42l-94.46-54.53a4.19,4.19,0,0,1-1.74-4.67l21.37-69.36a2.42,2.42,0,0,1,3.64-1.56l94.46,54.54a4.17,4.17,0,0,1,1.73,4.66l-21.36,69.36A2.42,2.42,0,0,1,312.29,194.42Z"/><g opacity=".5"><path fill="#06033e" d="M312.29,194.42l-94.46-54.53a4.19,4.19,0,0,1-1.74-4.67l21.37-69.36a2.42,2.42,0,0,1,3.64-1.56l94.46,54.54a4.17,4.17,0,0,1,1.73,4.66l-21.36,69.36A2.42,2.42,0,0,1,312.29,194.42Z"/></g><path fill="#fff" d="M335.56,118.84,241.1,64.3a2.34,2.34,0,0,0-2.65.09,2.58,2.58,0,0,1,1.36.35l94.46,54.54a4.18,4.18,0,0,1,1.73,4.66L314.64,193.3a2.88,2.88,0,0,1-1,1.47,2.48,2.48,0,0,0,2.28-1.91l21.36-69.36A4.17,4.17,0,0,0,335.56,118.84Z"/><path fill="#06033e" d="M193.15,251.06a7.1,7.1,0,0,1-3.5-.82h0L151.8,228.39a2.72,2.72,0,0,1-1.55-2.33,3.57,3.57,0,0,1,2.09-2.89l19.48-11.25a8.72,8.72,0,0,1,8-.31l37.85,21.85a2.74,2.74,0,0,1,1.55,2.33,3.59,3.59,0,0,1-2.08,2.9l-19.48,11.25A9.23,9.23,0,0,1,193.15,251.06ZM176.29,211.9a8.11,8.11,0,0,0-3.93,1l-19.48,11.24c-1,.57-1.54,1.28-1.54,1.95a1.75,1.75,0,0,0,1,1.39L190.2,249.3c1.71,1,4.85.85,6.86-.31l19.48-11.25c1-.56,1.54-1.27,1.54-2a1.73,1.73,0,0,0-1-1.38l-37.84-21.85A6.08,6.08,0,0,0,176.29,211.9Z" opacity=".4"/><path fill="#fff" d="M264.11,100.69l-5.84-3.37a1.54,1.54,0,0,1-.65-1.68h0a.86.86,0,0,1,1.31-.55l5.84,3.37a1.51,1.51,0,0,1,.65,1.68h0A.86.86,0,0,1,264.11,100.69Z"/><path fill="#fff" d="M278,108.72l-8.61-5a1.53,1.53,0,0,1-.65-1.68h0a.86.86,0,0,1,1.31-.55l8.62,5a1.52,1.52,0,0,1,.64,1.68h0A.86.86,0,0,1,278,108.72Z"/><path fill="#fff" d="M252.33,126.69l-5.84-3.37a1.54,1.54,0,0,1-.65-1.68h0a.87.87,0,0,1,1.32-.55l5.84,3.37a1.54,1.54,0,0,1,.65,1.68h0A.87.87,0,0,1,252.33,126.69Z"/><path fill="#fff" d="M264.73,133.85l-8.61-5a1.54,1.54,0,0,1-.65-1.68h0a.87.87,0,0,1,1.32-.55l8.61,5a1.53,1.53,0,0,1,.65,1.68h0A.87.87,0,0,1,264.73,133.85Z"/><path fill="#fff" d="M246.62,96.06,243,94a1.53,1.53,0,0,1-.65-1.68h0a.87.87,0,0,1,1.31-.55l3.65,2.11a1.53,1.53,0,0,1,.65,1.68h0A.87.87,0,0,1,246.62,96.06Z"/><path fill="#fff" d="M257.59,107.86l-11.14-6.44a1.53,1.53,0,0,1-.65-1.68h0a.86.86,0,0,1,1.31-.54l11.15,6.43a1.54,1.54,0,0,1,.65,1.68h0A.87.87,0,0,1,257.59,107.86Z"/><path fill="#fff" d="M247.31,112.86l-3.64-2.11a1.5,1.5,0,0,1-.65-1.68h0a.86.86,0,0,1,1.31-.54l3.65,2.1a1.53,1.53,0,0,1,.65,1.68h0A.87.87,0,0,1,247.31,112.86Z"/><path fill="#fff" d="M266.08,145.56l-9.75-5.63a1.53,1.53,0,0,1-.65-1.68h0a.87.87,0,0,1,1.32-.54l9.74,5.62a1.53,1.53,0,0,1,.65,1.68h0A.87.87,0,0,1,266.08,145.56Z"/><path fill="#fff" d="M243.22,121.43l-2.34-1.35a1.54,1.54,0,0,1-.65-1.68h0a.87.87,0,0,1,1.32-.55l2.34,1.35a1.54,1.54,0,0,1,.65,1.68h0A.87.87,0,0,1,243.22,121.43Z"/><path fill="#fff" d="M241,131.08l-2.91-1.68a1.52,1.52,0,0,1-.65-1.67h0a.86.86,0,0,1,1.31-.54l2.91,1.68a1.51,1.51,0,0,1,.65,1.68h0A.86.86,0,0,1,241,131.08Z"/><path fill="#fff" d="M252.32,137.61l-7.67-4.42a1.51,1.51,0,0,1-.64-1.68h0a.86.86,0,0,1,1.31-.55l7.67,4.43a1.51,1.51,0,0,1,.64,1.68h0A.86.86,0,0,1,252.32,137.61Z"/><path fill="#fff" d="M242.22,137.25l-5.51-3.18a1.54,1.54,0,0,1-.65-1.68h0a.86.86,0,0,1,1.31-.55l5.52,3.18a1.54,1.54,0,0,1,.65,1.68h0A.87.87,0,0,1,242.22,137.25Z"/><path fill="#fff" d="M274.44,150.41l-3.54-2a1.51,1.51,0,0,1-.65-1.68h0a.86.86,0,0,1,1.31-.54l3.54,2a1.53,1.53,0,0,1,.65,1.68h0A.87.87,0,0,1,274.44,150.41Z"/><path fill="#fff" d="M260.88,120.69l-9.74-5.62a1.54,1.54,0,0,1-.65-1.68h0a.86.86,0,0,1,1.31-.55l9.75,5.63a1.53,1.53,0,0,1,.65,1.68h0A.87.87,0,0,1,260.88,120.69Z"/><path fill="#e8975b" d="M262,115.89l-17-9.8a1.51,1.51,0,0,1-.65-1.68h0a.86.86,0,0,1,1.31-.55l17,9.81a1.51,1.51,0,0,1,.65,1.68h0A.86.86,0,0,1,262,115.89Z"/><path fill="#e8975b" d="M252,121l-9.75-5.63a1.51,1.51,0,0,1-.64-1.68h0a.86.86,0,0,1,1.31-.54l9.74,5.62a1.54,1.54,0,0,1,.65,1.68h0A.86.86,0,0,1,252,121Z"/><path fill="#e8975b" d="M268.27,125l-3.54-2a1.52,1.52,0,0,1-.65-1.67h0a.87.87,0,0,1,1.32-.55l3.54,2a1.54,1.54,0,0,1,.65,1.68h0A.87.87,0,0,1,268.27,125Z"/><path fill="#e8975b" d="M304.29,123.88l-21-12.1a1.53,1.53,0,0,1-.65-1.68h0a.87.87,0,0,1,1.31-.55l21,12.11a1.53,1.53,0,0,1,.65,1.68h0A.86.86,0,0,1,304.29,123.88Z"/><path fill="#f8359e" d="M251.2,131.5l-11.71-6.76a1.53,1.53,0,0,1-.65-1.68h0a.87.87,0,0,1,1.32-.54l11.71,6.76a1.53,1.53,0,0,1,.65,1.68h0A.87.87,0,0,1,251.2,131.5Z"/><path fill="#f8359e" d="M253,94.26l-8.61-5a1.54,1.54,0,0,1-.65-1.68h0a.86.86,0,0,1,1.31-.55l8.61,5a1.5,1.5,0,0,1,.65,1.68h0A.86.86,0,0,1,253,94.26Z"/><path fill="#e8975b" d="M240.42,141.68l-10-5.76a1.53,1.53,0,0,1-.65-1.68h0a.87.87,0,0,1,1.31-.55l10,5.76a1.51,1.51,0,0,1,.64,1.68h0A.86.86,0,0,1,240.42,141.68Z"/><path fill="#fff" d="M306.64,113.1l-4.27-2.46a1.1,1.1,0,0,1-.47-1.23h0a.63.63,0,0,1,1-.4l4.26,2.46a1.12,1.12,0,0,1,.48,1.23h0A.63.63,0,0,1,306.64,113.1Z"/><path fill="#fff" d="M314.78,117.8l-4.27-2.46a1.12,1.12,0,0,1-.47-1.23h0a.63.63,0,0,1,1-.4l4.27,2.47a1.11,1.11,0,0,1,.47,1.22h0A.63.63,0,0,1,314.78,117.8Z"/><path fill="#fff" d="M322.92,122.5,318.65,120a1.13,1.13,0,0,1-.47-1.23h0a.63.63,0,0,1,1-.4l4.27,2.47a1.1,1.1,0,0,1,.47,1.22h0A.63.63,0,0,1,322.92,122.5Z"/><path fill="#f8359e" d="M326.93,124.82l-.13-.08a1.12,1.12,0,0,1-.48-1.23h0a.63.63,0,0,1,1-.4l.13.08a1.1,1.1,0,0,1,.47,1.23h0A.62.62,0,0,1,326.93,124.82Z"/><path fill="url(#Áåçûìÿííûé_ãðàäèåíò_33-5)" d="M106.61,174.77a15.53,15.53,0,0,1-7.81-2.09h0L70.21,156.17a3.94,3.94,0,0,1,0-6.85L98.8,132.81a15.67,15.67,0,0,1,15.62,0L143,149.32a4,4,0,0,1,0,6.86l-28.59,16.5A15.57,15.57,0,0,1,106.61,174.77Zm-6.88-3.7a13.82,13.82,0,0,0,13.77,0l28.59-16.51a2.09,2.09,0,0,0,0-3.63L113.5,134.42a13.82,13.82,0,0,0-13.77,0l-28.6,16.51a2.1,2.1,0,0,0,0,3.63Z"/><ellipse cx="106.47" cy="153.14" fill="#020230" opacity=".6" rx="19.64" ry="11.34"/><path fill="url(#Áåçûìÿííûé_ãðàäèåíò_199)" d="M135.58,72.32H79.64l5.2,60.57h0c0,3.36,2.23,6.72,6.67,9.29,8.89,5.13,23.31,5.13,32.2,0,4.45-2.57,6.67-5.93,6.67-9.29Z"/><path fill="#06033e" d="M135.58,72.32H79.64l.86,10A21.87,21.87,0,0,0,85.68,87C96.37,94,114,95.4,126,90.3l-1.86,44.3a8.69,8.69,0,0,1-2,5.28c-1.81,2.13-5.3,4.64-12,6.06a31.53,31.53,0,0,0,13.54-3.76c4.45-2.57,6.67-5.93,6.67-9.29l4.17-48.58h0Z" opacity=".4"/><ellipse cx="107.61" cy="72.32" fill="#06033e" opacity=".4" rx="27.97" ry="16.15"/><ellipse cx="107.61" cy="66.62" fill="#06033e" opacity=".4" rx="24.09" ry="13.91"/><path fill="url(#Áåçûìÿííûé_ãðàäèåíò_144)" d="M137.24,71.56h0v0a.25.25,0,0,1,0-.08L136.69,66l0,.07c-.24-4.11-3.07-8.17-8.5-11.31-11.35-6.55-29.77-6.55-41.12,0-5.57,3.22-8.4,7.41-8.51,11.62v0L78,71.19c0,.13,0,.25,0,.38v.08h0c-.31,4.6,2.58,9.26,8.66,12.77,11.58,6.69,30.36,6.69,41.94,0C134.71,80.88,137.59,76.18,137.24,71.56Z"/><ellipse cx="107.61" cy="66.62" fill="url(#Áåçûìÿííûé_ãðàäèåíò_483)" rx="24.09" ry="13.91"/><ellipse cx="106.47" cy="66.62" fill="url(#Áåçûìÿííûé_ãðàäèåíò_483-2)" rx="24.09" ry="13.91"/><path fill="#06033e" d="M93.43,58.86c9.41-5.43,24.67-5.43,34.07,0l.34.22a19.64,19.64,0,0,0-3.19-2.29c-9.41-5.43-24.67-5.43-34.08,0s-9.38,14-.33,19.45C84.19,70.85,85.25,63.58,93.43,58.86Z" opacity=".4"/><path fill="url(#Áåçûìÿííûé_ãðàäèåíò_193)" d="M90.57,59.2c9.41-5.43,24.67-5.43,34.08,0,4.17,2.41,6.49,5.48,7,8.63.59-3.95-1.73-8-7-11-9.41-5.43-24.67-5.43-34.08,0-5.23,3-7.55,7.09-7,11C84.09,64.68,86.4,61.61,90.57,59.2Z"/><path fill="url(#Áåçûìÿííûé_ãðàäèåíò_223)" d="M128.35,54.89c-11.34-6.68-29.82-6.84-41.27-.36s-11.55,17.15-.21,23.83,29.82,6.84,41.27.36S139.69,61.57,128.35,54.89Zm-3.7,21.57a31.53,31.53,0,0,1-11,3.61l-.44-1.44a1.36,1.36,0,0,0-1.31-1h-8.65a1.37,1.37,0,0,0-1.32,1l-.44,1.44a31.41,31.41,0,0,1-11-3.61c-9.41-5.43-9.41-14.24,0-19.67s24.67-5.43,34.08,0S134.06,71,124.65,76.46Z"/><path fill="#fff" d="M124.65,55.76c-9.41-5.43-24.67-5.43-34.08,0-4.93,2.85-7.27,6.62-7,10.35.22-3.39,2.56-6.74,7-9.32,9.41-5.43,24.67-5.43,34.08,0,4.47,2.58,6.82,5.93,7,9.32C131.92,62.38,129.58,58.61,124.65,55.76Z"/><path fill="#fff" d="M128.14,77.69c-11.45,6.48-29.93,6.32-41.27-.36-5.4-3.18-8.2-7.26-8.43-11.37-.22,4.45,2.58,9,8.43,12.4,11.34,6.68,29.82,6.84,41.27.36,6-3.4,8.89-7.94,8.64-12.46C136.57,70.43,133.69,74.55,128.14,77.69Z"/><rect width="6.48" height="1.4" x="104.37" y="79.42" fill="#0c0a78" rx=".65" ry=".65"/><path fill="url(#Áåçûìÿííûé_ãðàäèåíò_193-2)" d="M110.2,79.42H105a.65.65,0,0,0-.66.65v.1a.53.53,0,0,0,0,.17.64.64,0,0,1,.62-.48h5.17a.63.63,0,0,1,.61.48.53.53,0,0,0,0-.17v-.1A.65.65,0,0,0,110.2,79.42Z"/><path fill="#e8975b" d="M108.4,126.66a4.47,4.47,0,0,1-8.64-2.29c.64-2.39,2.89-3.06,5.27-2.43S109,124.28,108.4,126.66Z"/><path fill="#e8975b" d="M111.92,122a2,2,0,1,1-2.76-2.83c.89-.88,2.61-1.32,3.37-.54S112.82,121.08,111.92,122Z"/><path fill="#e8975b" d="M107.25,118.22a2,2,0,1,1-3.9-.7c.22-1.24,1.36-2.58,2.44-2.39S107.47,117,107.25,118.22Z"/><path fill="#e8975b" d="M101.49,117.64a2,2,0,1,1-3.66,1.51c-.48-1.16-.24-2.91.77-3.33S101,116.48,101.49,117.64Z"/><path fill="#fff" d="M109.44,80.12s15.64-5.24,9.31-23.21-18.66-23.45-13.7-37.83c0,0-7.78,11.64-.51,27.39s8.87,13.93,8.79,21.47A13.58,13.58,0,0,1,106,80.12Z" opacity=".5"/><path fill="#fff" d="M110.85,21.58S109.22,10.83,119.3,0c0,0-8.91,19.92-6,29.75C113.3,29.75,111,23.5,110.85,21.58Z" opacity=".5"/></g></g></svg>