<svg xmlns="http://www.w3.org/2000/svg" viewBox="0 0 316.51 107.57"><title>logo</title><g id="Layer_2" data-name="Layer 2"><g id="Layer_1-2" data-name="Layer 1"><path fill="#1f2732" d="M50.54,29.38a25.11,25.11,0,0,1,9.8,11.37V26.21H84.82v80.35H60.34V92a25.11,25.11,0,0,1-9.8,11.37,29,29,0,0,1-15.84,4.18,32.55,32.55,0,0,1-17.78-5A34,34,0,0,1,4.54,88.27Q0,78.91,0,66.38t4.54-22A34,34,0,0,1,16.92,30.17a32.55,32.55,0,0,1,17.78-5A29,29,0,0,1,50.54,29.38ZM29.88,52q-4.83,5.19-4.82,14.4t4.82,14.4Q34.71,86,42.62,86a16.66,16.66,0,0,0,12.75-5.33q5-5.33,5-14.26t-5-14.32A16.74,16.74,0,0,0,42.62,46.8Q34.7,46.8,29.88,52Z"/><path fill="#1f2732" d="M126.43,0V106.56H101.81V0Z"/><path fill="#1f2732" d="M202.39,30.17A36.4,36.4,0,0,1,217.22,44.5q5.4,9.36,5.4,21.88t-5.4,21.89a36.4,36.4,0,0,1-14.83,14.33,48.64,48.64,0,0,1-42.84,0,36.27,36.27,0,0,1-14.9-14.33q-5.4-9.36-5.4-21.89t5.4-21.88a36.27,36.27,0,0,1,14.9-14.33,48.64,48.64,0,0,1,42.84,0ZM169.13,51.62q-4.83,5.12-4.83,14.76t4.83,14.69a15.78,15.78,0,0,0,11.88,5,15.55,15.55,0,0,0,11.8-5q4.75-5,4.76-14.69t-4.76-14.76A15.47,15.47,0,0,0,181,46.51,15.7,15.7,0,0,0,169.13,51.62Z"/><path fill="#1f2732" d="M308.37,34.56q8.13,9.21,8.14,25.34v46.66H291.88V62.78q0-8.06-4.24-12.6a14.79,14.79,0,0,0-11.31-4.53q-7.49,0-11.88,4.75t-4.39,13.54v42.62H235.44V26.21h24.62V40.9a26.48,26.48,0,0,1,10.3-11.38,30.2,30.2,0,0,1,16.05-4.18Q300.24,25.34,308.37,34.56Z"/></g></g></svg>