<svg xmlns="http://www.w3.org/2000/svg" viewBox="0 0 703.35 239.04"><title>alon</title><g id="Layer_2" data-name="Layer 2"><g id="Layer_1-2" data-name="Layer 1"><path d="M112.32,65.28a55.9,55.9,0,0,1,21.76,25.28V58.24h54.4V236.8h-54.4V204.48a55.85,55.85,0,0,1-21.76,25.28Q97.59,239,77.12,239,55,239,37.6,228T10.08,196.16Q0,175.36,0,147.52q0-28.16,10.08-48.8T37.6,67Q55,56,77.12,56,97.6,56,112.32,65.28ZM66.4,115.52q-10.73,11.52-10.72,32t10.72,32Q77.11,191,94.72,191,112,191,123,179.2t11-31.68q0-20.16-11-31.84T94.72,104Q77.11,104,66.4,115.52Z"/><path d="M281,0V236.8H226.24V0Z"/><path d="M449.75,67a80.94,80.94,0,0,1,33,31.84q12,20.81,12,48.64t-12,48.64a80.94,80.94,0,0,1-33,31.84q-21,11-47.52,11t-47.68-11a80.66,80.66,0,0,1-33.12-31.84q-12-20.81-12-48.64t12-48.64A80.66,80.66,0,0,1,354.55,67q21.12-11,47.68-11T449.75,67Zm-73.92,47.68q-10.72,11.36-10.72,32.8t10.72,32.64a35.1,35.1,0,0,0,26.4,11.2,34.59,34.59,0,0,0,26.24-11.2Q439,169,439,147.52t-10.56-32.8a34.38,34.38,0,0,0-26.24-11.36A34.89,34.89,0,0,0,375.83,114.72Z"/><path d="M685.27,76.8q18.08,20.48,18.08,56.32V236.8H648.63V139.52q0-17.93-9.44-28t-25.12-10.08q-16.64,0-26.4,10.56t-9.76,30.08V236.8H523.19V58.24h54.72V90.88A58.92,58.92,0,0,1,600.79,65.6q15.19-9.27,35.68-9.28Q667.19,56.32,685.27,76.8Z"/></g></g></svg>