<svg xmlns="http://www.w3.org/2000/svg" viewBox="0 0 900.04 328.57"><title>page404-header</title><g id="Layer_2" data-name="Layer 2"><g id="Layer_1-2" data-name="Layer 1"><path d="M0,278.44v-84.3L135.81.45H244.72V191h32.81v87.49H244.72v50.13H142.64V278.44ZM150.85,115.75,101.63,191h49.22Z"/><path d="M311.71,163.15q0-74.73,33.72-118.95T448.43,0q69.27,0,103,44.43t33.72,118.72q0,74.74-33.72,119.17t-103,44.43q-69.29,0-103-44.43T311.71,163.15Zm173.63,0q0-32.35-7.29-49.9T448.43,95.7q-22.8,0-30.08,17.55t-7.29,49.9q0,32.35,7.29,50.13t30.08,17.77q22.32,0,29.62-17.77T485.34,163.15Z"/><path d="M622.51,278.44v-84.3L758.31.45H867.23V191H900v87.49H867.23v50.13H765.15V278.44ZM773.35,115.75,724.13,191h49.22Z"/></g></g></svg>